<?xml version="1.0" standalone="no"?>
<!DOCTYPE svg PUBLIC "-//W3C//DTD SVG 1.1//EN" "http://www.w3.org/Graphics/SVG/1.1/DTD/svg11.dtd" >
<svg xmlns="http://www.w3.org/2000/svg">
<metadata></metadata>
<defs>
<font id="helvetica-5-normalregular" horiz-adv-x="1138" >
<font-face units-per-em="2048" ascent="1638" descent="-410" />
<missing-glyph horiz-adv-x="569" />
<glyph horiz-adv-x="2048" />
<glyph horiz-adv-x="2048" />
<glyph unicode="&#xd;" horiz-adv-x="569" />
<glyph unicode=" "  horiz-adv-x="569" />
<glyph unicode="&#x09;" horiz-adv-x="569" />
<glyph unicode="&#xa0;" horiz-adv-x="569" />
<glyph unicode="!" horiz-adv-x="530" d="M158 0v207h215v-207h-215zM170 1012v446h192v-446l-51 -650h-94z" />
<glyph unicode="&#x22;" horiz-adv-x="872" d="M211 1425h133l-18 -569h-95zM528 1425h134l-19 -569h-96z" />
<glyph unicode="#" d="M29 432v115h241l66 336h-221l-2 112h243l82 430h133l-82 -430h267l84 430h131l-82 -430h221v-112h-242l-65 -336h221l2 -115h-244l-82 -432h-131l80 432h-266l-82 -432h-133l82 432h-221zM403 547h269l63 336h-268z" />
<glyph unicode="$" d="M63 416v20h175q-2 -10 -2 -16v-10q0 -139 71.5 -212t206.5 -85v563q-92 18 -170 47t-133 76t-87 112.5t-32 157.5q0 96 33 168t90 121t134 77.5t165 37.5v141h96v-141q197 -4 305.5 -99.5t112.5 -294.5h-172v13q0 219 -246 237v-508q88 -25 170 -53.5t145.5 -74.5 t100.5 -116.5t37 -181.5q0 -188 -118 -300.5t-335 -127.5v-170h-96v170q-100 4 -183 34t-142.5 86t-92.5 138t-33 191zM262 1083q0 -59 20.5 -100t55.5 -68.5t81 -45t95 -29.5v485q-117 -10 -184.5 -73.5t-67.5 -168.5zM610 111q123 4 201 80.5t78 199.5q0 63 -23.5 107.5 t-62.5 75t-89 49t-104 30.5v-542z" />
<glyph unicode="%" horiz-adv-x="2048" d="M190 1049q0 197 87 302t251 105q158 0 240 -99.5t82 -291.5q0 -211 -84 -320.5t-246 -109.5q-330 0 -330 414zM344 1038q0 -287 176 -286q59 0 94 30.5t53.5 76.5t23.5 99.5t5 98.5q0 280 -176 280t-176 -299zM532 -70l822 1567h135l-817 -1567h-140zM1210 383 q0 197 87 302.5t251 105.5q158 0 240 -99.5t82 -292.5q0 -211 -84 -320.5t-246 -109.5q-330 0 -330 414zM1364 373q0 -287 176 -287q59 0 94 30.5t53.5 77t23.5 99.5t5 98q0 281 -176 281t-176 -299z" />
<glyph unicode="&#x26;" horiz-adv-x="1290" d="M68 381q0 76 28.5 143.5t75.5 122.5t109.5 99.5t128.5 72.5q-84 102 -121 181t-37 157q0 68 24.5 125t69.5 98t107.5 63.5t138.5 22.5q74 0 135 -22.5t105.5 -62.5t69 -95t24.5 -123q0 -66 -21.5 -122t-57.5 -104t-85 -86t-105 -67l267 -325q20 49 31.5 109.5t15.5 121.5 h166q-4 -102 -31 -195.5t-70 -164.5l283 -330h-225l-156 184q-152 -215 -426 -215q-92 0 -173 28t-141.5 81t-95 130t-34.5 173zM250 389q0 -55 21.5 -104t60.5 -86t89 -58.5t109 -21.5q193 0 310 182l-336 406q-45 -23 -90 -54.5t-82 -71.5t-59.5 -88.5t-22.5 -103.5z M420 1163q0 -35 15.5 -70.5t37 -70.5t47 -66.5t45.5 -58.5q35 20 69 46t61.5 56.5t45 68.5t17.5 81q0 76 -48 125t-120 49t-121 -46t-49 -114z" />
<glyph unicode="'" horiz-adv-x="569" d="M217 1425h133l-18 -569h-94z" />
<glyph unicode="(" horiz-adv-x="530" d="M98 539q0 250 80 490.5t240 455.5h133q-135 -207 -203.5 -447.5t-68.5 -496.5q0 -248 69.5 -483.5t202.5 -446.5h-133q-76 119 -135.5 228.5t-100.5 220t-62.5 227t-21.5 252.5z" />
<glyph unicode=")" horiz-adv-x="530" d="M-25 -389q133 211 203 446.5t70 483.5q0 256 -68.5 496.5t-204.5 447.5h134q160 -215 239.5 -455.5t79.5 -490.5q0 -135 -21.5 -252t-62.5 -227.5t-100.5 -220t-134.5 -228.5h-134z" />
<glyph unicode="*" horiz-adv-x="720" d="M49 1231l35 100l219 -82v232h111v-232l217 82l41 -100l-223 -78l135 -184l-84 -62l-142 193l-135 -193l-90 62l133 184z" />
<glyph unicode="+" horiz-adv-x="1228" d="M100 453v120h447v453h135v-453h446v-120h-446v-453h-135v453h-447z" />
<glyph unicode="," horiz-adv-x="569" d="M170 0v227h227v-139q0 -68 -7 -130t-30.5 -113.5t-68.5 -89.5t-121 -58v102q59 20 85 67.5t28 133.5h-113z" />
<glyph unicode="-" horiz-adv-x="796" d="M100 483v172h596v-172h-596z" />
<glyph unicode="." horiz-adv-x="569" d="M170 0v227h227v-227h-227z" />
<glyph unicode="/" horiz-adv-x="681" d="M-37 -35l612 1528h144l-608 -1528h-148z" />
<glyph unicode="0" d="M84 694q0 129 12.5 264.5t61.5 245t145 179t264 69.5q113 0 193 -33t134 -88t86 -130t48 -160t20.5 -175t4.5 -176q0 -129 -16.5 -257t-66.5 -230.5t-144.5 -167t-250.5 -64.5q-166 0 -263 64.5t-147 167t-65.5 232.5t-15.5 259zM268 694q0 -80 5.5 -179t35 -186 t91 -145.5t171.5 -58.5q111 0 171.5 60.5t88 149.5t31.5 189.5t4 177.5q0 53 -1 119t-9 131.5t-25.5 128t-50 110.5t-85 76.5t-128.5 28.5t-128 -29.5t-84.5 -77.5t-50 -110.5t-26 -129t-9.5 -133t-1 -122.5z" />
<glyph unicode="1" d="M178 1051v131q80 0 148.5 11t123 41t91.5 82t55 134h137v-1450h-190v1051h-365z" />
<glyph unicode="2" d="M51 0q6 125 40 214t89.5 157.5t132 124t170.5 114.5q57 37 119 77t113 89t82.5 109.5t31.5 140.5q0 123 -77.5 198.5t-202.5 75.5q-82 0 -135.5 -31.5t-86 -82.5t-46 -116.5t-15.5 -133.5h-176v39q0 106 34 194t95.5 151.5t147.5 97.5t190 34q102 0 186 -29.5t143.5 -85 t91.5 -133.5t32 -174q0 -106 -38 -186t-99.5 -144.5t-139.5 -116t-158 -100.5q-49 -31 -101 -61.5t-96 -69.5t-78 -86t-48 -108h745v-158h-946z" />
<glyph unicode="3" d="M61 422v27h172q6 -156 88 -240t228 -84q139 0 226 78t87 205q0 129 -87 203.5t-234 74.5q-27 0 -44.5 -2t-50.5 -6v147q23 -2 33 -2h27q135 0 214 64.5t79 175.5q0 109 -68.5 173t-183.5 64q-131 0 -205 -82.5t-78 -236.5h-170q6 227 125 349t336 122q96 0 175 -27.5 t134.5 -77t86 -119t30.5 -155.5q0 -104 -52 -183t-147 -120q123 -29 195 -123t72 -227q0 -102 -36 -184t-102.5 -141.5t-160 -91.5t-203.5 -32q-111 0 -200 32t-152.5 90.5t-98.5 141t-35 187.5z" />
<glyph unicode="4" d="M57 350v164l660 938h141v-954h197v-148h-197v-350h-164v350h-637zM211 498h483v698z" />
<glyph unicode="5" d="M72 391h176q10 -123 91 -197.5t204 -74.5q68 0 125 25.5t100 71.5t66.5 108.5t23.5 136.5q0 76 -23.5 138.5t-64.5 107.5t-100.5 70.5t-128.5 25.5q-180 0 -279 -141l-149 10l135 753h717v-153h-588l-86 -432q59 66 131 90t162 24q102 0 186 -34.5t144.5 -97t94 -149.5 t33.5 -194q0 -111 -35.5 -204t-102 -160.5t-159 -105.5t-204.5 -38q-104 0 -189.5 30t-147 85t-96 132t-36.5 173z" />
<glyph unicode="6" d="M80 692q0 131 22.5 266.5t81 245t160.5 179t262 69.5q184 0 294 -98.5t124 -278.5h-178q-14 102 -74.5 163.5t-171.5 61.5q-117 0 -184.5 -60t-102 -146t-46 -183.5t-15.5 -171.5q59 98 152.5 144.5t207.5 46.5q100 0 184.5 -34t142.5 -94.5t91 -146.5t33 -190 t-33 -195.5t-95.5 -157t-150.5 -103.5t-198 -38q-158 0 -256.5 65.5t-153.5 169t-75.5 231.5t-20.5 255zM285 457q0 -152 83 -241t218 -89q131 0 212 87t81 235q0 154 -80 241.5t-217 87.5q-133 0 -215 -88t-82 -233z" />
<glyph unicode="7" d="M94 1260v165h938v-149q-104 -121 -196.5 -257t-164 -294t-121.5 -338t-73 -387h-192q12 174 59 344t122 332t174 309.5t214 274.5h-760z" />
<glyph unicode="8" d="M82 410q0 133 66.5 227t189.5 139q-96 41 -148.5 120t-52.5 185q0 82 32 150.5t89 118t136 76t175 26.5q94 0 172 -26.5t135.5 -74.5t89 -115t31.5 -146q0 -109 -50 -188t-148 -126q256 -90 256 -354q0 -104 -35 -187t-98.5 -141.5t-154.5 -90.5t-204 -32q-109 0 -198 32 t-151 89.5t-97 138t-35 179.5zM264 414q0 -66 22.5 -119t62.5 -93t96.5 -61.5t121.5 -21.5q68 0 124.5 21.5t96 60.5t62 92t22.5 119q0 63 -22.5 116.5t-63.5 92t-97 59t-126 20.5q-66 0 -120 -21.5t-94 -59t-62.5 -91t-22.5 -114.5zM315 1069q0 -104 70 -165.5t184 -61.5 q115 0 182.5 61.5t67.5 165.5t-67.5 165.5t-182.5 61.5t-184.5 -61t-69.5 -166z" />
<glyph unicode="9" d="M70 965q0 109 34.5 198.5t98 154t151.5 99.5t195 35q158 0 255 -64.5t151.5 -166t74 -227.5t19.5 -251q0 -82 -9.5 -171t-32 -175t-59.5 -163.5t-94 -136t-136 -92.5t-183 -34q-90 0 -167 26t-134.5 74t-91 118.5t-40.5 160.5h172q14 -106 85 -166.5t182 -60.5 q94 0 153.5 46t95 115.5t52 153.5t22.5 158q4 33 4 50.5v45.5q-61 -100 -146 -149t-208 -49q-98 0 -180 33.5t-140.5 96t-91 149.5t-32.5 192zM254 971q0 -66 18.5 -124.5t54 -102.5t89 -69.5t125.5 -25.5q135 0 216 87t81 231q0 152 -81 240.5t-216 88.5 q-63 0 -116.5 -23.5t-91.5 -65.5t-58.5 -102.5t-20.5 -133.5z" />
<glyph unicode=":" horiz-adv-x="569" d="M170 0v227h227v-227h-227zM170 829v228h227v-228h-227z" />
<glyph unicode=";" horiz-adv-x="569" d="M170 0v227h227v-139q0 -68 -7 -130t-30.5 -113.5t-68.5 -89.5t-121 -58v102q59 20 85 67.5t28 133.5h-113zM170 829v228h227v-228h-227z" />
<glyph unicode="&#x3c;" horiz-adv-x="1228" d="M100 457v133l1028 409v-137l-866 -340l866 -336v-137z" />
<glyph unicode="=" horiz-adv-x="1228" d="M100 274v121h1028v-121h-1028zM100 664v122h1028v-122h-1028z" />
<glyph unicode="&#x3e;" horiz-adv-x="1228" d="M100 49v137l867 336l-867 340v137l1028 -409v-133z" />
<glyph unicode="?" d="M113 1001q0 100 27.5 188.5t85 154t144.5 103.5t203 38q98 0 178 -27.5t136.5 -79t87.5 -124t31 -162.5q0 -117 -42 -194t-118 -148q-51 -49 -89 -83t-62.5 -74t-36 -94.5t-11.5 -144.5h-168v13q0 92 11.5 153.5t38 110.5t69.5 95t107 110q66 66 91 118t25 117 q0 121 -66.5 189.5t-183.5 68.5q-78 0 -131 -25.5t-87 -70.5t-49 -104.5t-19 -127.5h-172zM453 0v207h215v-207h-215z" />
<glyph unicode="@" horiz-adv-x="1638" d="M63 707q0 168 63.5 311t174.5 248.5t262.5 166t327.5 60.5q150 0 275.5 -45t217 -125t141.5 -192.5t50 -247.5q0 -109 -34 -206t-91 -171t-133 -118t-158 -44q-72 0 -116 40t-44 105q0 16 2.5 29.5t8.5 38.5q-45 -90 -115 -151.5t-178 -61.5q-123 0 -199 85t-76 222 q0 100 33 190.5t88 159t129 108.5t156 40q98 0 161.5 -48t84.5 -136l43 153h118l-120 -407q-23 -74 -32 -119t-9 -74q0 -41 25.5 -64.5t70.5 -23.5q57 0 112.5 39t97.5 102.5t67.5 145.5t25.5 170q0 117 -44 214t-124 166.5t-190.5 107.5t-245.5 38q-158 0 -294 -54 t-236.5 -149.5t-157 -224.5t-56.5 -280q0 -154 57.5 -276t155 -207t227.5 -131t275 -46q170 0 305 52.5t271 146.5l43 -60q-80 -59 -155 -100t-149.5 -67.5t-153.5 -39t-165 -12.5q-164 0 -307 52.5t-252 148.5t-171.5 233.5t-62.5 307.5zM582 649q0 -102 45 -160.5 t123 -58.5q70 0 124 49t90.5 120t55 148t18.5 134q0 82 -45 133t-121 51q-68 0 -122 -43t-91.5 -106.5t-57 -136t-19.5 -130.5z" />
<glyph unicode="A" horiz-adv-x="1327" d="M-16 0l573 1458h217l569 -1458h-215l-161 446h-613l-166 -446h-204zM410 600h499l-247 674z" />
<glyph unicode="B" horiz-adv-x="1402" d="M162 0v1458h622q90 0 174 -19.5t148.5 -62.5t103.5 -112.5t39 -169.5q0 -109 -58 -194t-157 -120q135 -31 208 -127t73 -241q0 -127 -47 -207t-125 -125t-177.5 -62.5t-203.5 -17.5h-600zM350 162h385q74 0 142.5 6t123 31.5t87 80t32.5 150.5q0 94 -38 146.5t-98 75 t-134 26.5t-148 4h-352v-520zM350 834h346q61 0 125 5t116 28.5t86 69.5t34 128t-30 128t-77 68.5t-109.5 27.5t-125.5 5h-365v-460z" />
<glyph unicode="C" horiz-adv-x="1478" d="M90 727q0 156 45 295t132 243.5t216 165t297 60.5q106 0 211 -29.5t189 -89t139 -147.5t65 -205h-192q-33 143 -142.5 224t-273.5 81q-129 0 -222 -50t-153.5 -133t-88 -190.5t-27.5 -222.5q0 -139 33.5 -249.5t97 -188.5t153.5 -119t205 -41q186 0 297 107.5t133 312.5 h193q-12 -139 -61.5 -247.5t-131.5 -184.5t-192.5 -115t-245.5 -39q-156 0 -281 53.5t-213 152.5t-135 239.5t-47 316.5z" />
<glyph unicode="D" horiz-adv-x="1441" d="M162 0v1458h475q369 0 546 -171t177 -546q0 -178 -38 -316t-121 -232.5t-214 -143.5t-315 -49h-510zM354 166h293q276 0 399 136t123 417q0 145 -27.5 253.5t-90 179.5t-164 105.5t-248.5 34.5h-285v-1126z" />
<glyph unicode="E" horiz-adv-x="1251" d="M162 0v1458h1009v-168h-817v-456h764v-162h-764v-504h828v-168h-1020z" />
<glyph unicode="F" horiz-adv-x="1175" d="M164 0v1458h958v-168h-766v-454h676v-162h-676v-674h-192z" />
<glyph unicode="G" horiz-adv-x="1554" d="M90 717q0 160 47 301t137.5 245.5t222.5 165t302 60.5q111 0 215 -31t189 -91t140.5 -149.5t65.5 -207.5h-188q-10 72 -46 130t-91.5 100t-128 64.5t-156.5 22.5q-119 0 -214.5 -42t-163 -121t-103 -190.5t-35.5 -250.5q0 -137 35.5 -247.5t102 -188.5t162 -120 t214.5 -42q115 0 199.5 37t141 102.5t85 155.5t32.5 194h-467v158h639v-772h-122l-50 182q-92 -115 -204.5 -166t-266.5 -51q-156 0 -283.5 54.5t-219 153.5t-141.5 237.5t-50 306.5z" />
<glyph unicode="H" horiz-adv-x="1478" d="M162 0v1458h192v-608h770v608h193v-1458h-193v682h-770v-682h-192z" />
<glyph unicode="I" horiz-adv-x="530" d="M170 0v1458h192v-1458h-192z" />
<glyph unicode="J" horiz-adv-x="1062" d="M51 424v24.5t2 30.5h187v-51q0 -66 9 -121t34.5 -95t74 -63.5t127.5 -23.5q84 0 130.5 28.5t69 75.5t26.5 109.5t4 128.5v991h192v-1009q0 -102 -18.5 -191.5t-65.5 -154t-129 -101.5t-207 -37q-119 0 -201.5 30t-135 88t-76 144t-23.5 197z" />
<glyph unicode="K" horiz-adv-x="1366" d="M162 0v1458h192v-723l740 723h252l-615 -586l639 -872h-246l-528 741l-242 -229v-512h-192z" />
<glyph unicode="L" d="M164 0v1458h192v-1290h774v-168h-966z" />
<glyph unicode="M" horiz-adv-x="1783" d="M164 0v1458h266l469 -1235l453 1235h268v-1458h-182v1217l-457 -1217h-168l-465 1217v-1217h-184z" />
<glyph unicode="N" horiz-adv-x="1478" d="M154 0v1458h211l770 -1184v1184h186v-1458h-217l-766 1169v-1169h-184z" />
<glyph unicode="O" horiz-adv-x="1556" d="M80 745q0 170 49 308.5t140 235.5t219 150.5t288 53.5q170 0 300 -56.5t219 -156.5t135.5 -238.5t46.5 -300.5q0 -160 -44 -301t-132.5 -246.5t-218.5 -167t-304 -61.5q-176 0 -306 62.5t-218 169t-131 248t-43 300.5zM272 731q0 -137 36 -247.5t102.5 -189.5t160 -121 t209.5 -42q115 0 208 43t158.5 121t101.5 189.5t36 246.5t-36 244.5t-102.5 187.5t-159.5 120t-210 42q-129 0 -224 -49t-156.5 -131t-92.5 -189.5t-31 -224.5z" />
<glyph unicode="P" horiz-adv-x="1327" d="M170 0v1458h600q104 0 193.5 -22.5t154 -73.5t101 -131t36.5 -193q0 -123 -37.5 -208t-104 -136t-158 -73.5t-197.5 -22.5h-396v-598h-192zM362 760h371q70 0 130.5 11t104.5 41t69.5 82t25.5 132q0 88 -28.5 140.5t-78 80t-114 36.5t-135.5 9h-345v-532z" />
<glyph unicode="Q" horiz-adv-x="1556" d="M80 745q0 168 50 306.5t141 235.5t220.5 150.5t286.5 53.5q162 0 291 -52.5t220 -149.5t139.5 -237.5t48.5 -316.5q0 -186 -56.5 -335.5t-160.5 -249.5l192 -154l-100 -121l-222 178q-74 -43 -166 -65.5t-190 -22.5q-170 0 -300 61.5t-218 167t-132 248t-44 303.5z M272 737q0 -121 30 -230.5t93.5 -193.5t159.5 -134t231 -50q53 0 102.5 9t96.5 32l-164 129l103 119l192 -158q94 94 131 216t37 255q0 135 -36 244.5t-101.5 187.5t-158.5 120t-206 42q-129 0 -224 -48t-158.5 -129t-95.5 -187.5t-32 -223.5z" />
<glyph unicode="R" horiz-adv-x="1402" d="M162 0v1458h641q102 0 191 -19.5t156 -65.5t104.5 -124t37.5 -194q0 -129 -68.5 -225.5t-181.5 -129.5q76 -16 119 -49t64.5 -80t28 -105t10.5 -124q2 -43 5 -91t10 -94t23.5 -87t45.5 -70h-222q-18 27 -27 69t-13.5 88t-5.5 90t-3 75q-4 92 -20.5 151t-54 95t-102 49.5 t-163.5 13.5h-383v-631h-192zM354 784h363q70 0 139.5 6.5t122.5 33t87 77.5t34 141q0 82 -28 131.5t-74 76t-106.5 35.5t-123.5 9h-414v-510z" />
<glyph unicode="S" horiz-adv-x="1327" d="M80 481h186q2 -98 38 -166.5t94.5 -110.5t136 -60.5t165.5 -18.5q63 0 128 12.5t117 43t85 81.5t33 129q0 70 -33 115t-89 74.5t-134 50t-168 41.5q-88 20 -178 41.5t-164 62.5t-120 110.5t-46 184.5q0 113 46 191.5t120 129t169 73t193 22.5q117 0 213.5 -27.5t166 -84 t110.5 -142.5t45 -203h-186q-16 160 -108.5 228.5t-254.5 68.5q-158 0 -244 -62.5t-86 -179.5q0 -61 30 -101t83 -65.5t126 -43t157 -35.5q88 -18 184 -45t175 -74t130 -122t51 -189q0 -121 -49 -206t-130 -137.5t-182.5 -76t-205.5 -23.5q-131 0 -241.5 31t-191.5 94.5 t-126 159.5t-45 229z" />
<glyph unicode="T" horiz-adv-x="1175" d="M2 1290v168h1172v-168h-490v-1290h-192v1290h-490z" />
<glyph unicode="U" horiz-adv-x="1478" d="M152 569v889h194v-919q0 -211 91 -310.5t302 -99.5q111 0 185.5 26.5t121 78t67 128t20.5 177.5v919h194v-868q0 -154 -29.5 -269.5t-98.5 -194.5t-181.5 -118t-278.5 -39q-158 0 -269.5 37t-182 112t-103 187.5t-32.5 263.5z" />
<glyph unicode="V" horiz-adv-x="1251" d="M-4 1458h213l420 -1270l424 1270h202l-520 -1458h-221z" />
<glyph unicode="W" horiz-adv-x="1896" d="M29 1458h198l289 -1218l330 1218h211l325 -1218l299 1218h193l-389 -1458h-203l-336 1221l-340 -1221h-203z" />
<glyph unicode="X" horiz-adv-x="1251" d="M-10 0l514 752l-481 706h231l367 -561l378 561h220l-486 -706l512 -752h-233l-394 600l-407 -600h-221z" />
<glyph unicode="Y" horiz-adv-x="1327" d="M6 1458h232l436 -694l432 694h221l-563 -862v-596h-191v596z" />
<glyph unicode="Z" horiz-adv-x="1251" d="M35 0v164l907 1126h-836v168h1070v-160l-910 -1130h932v-168h-1163z" />
<glyph unicode="[" horiz-adv-x="530" d="M147 -385v1866h388v-140h-222v-1587h222v-139h-388z" />
<glyph unicode="\" horiz-adv-x="681" d="M-37 1493h143l613 -1528h-148z" />
<glyph unicode="]" horiz-adv-x="530" d="M-4 -246h221v1587h-221v140h387v-1866h-387v139z" />
<glyph unicode="^" horiz-adv-x="1228" d="M203 575l348 850h127l348 -850h-141l-273 689l-268 -689h-141z" />
<glyph unicode="_" horiz-adv-x="1024" d="M0 -154h1024v-102h-1024v102z" />
<glyph unicode="`" horiz-adv-x="454" d="M-49 1499h225l176 -291h-131z" />
<glyph unicode="a" horiz-adv-x="1099" d="M74 270q0 283 375 330q94 12 158.5 19.5t104.5 22.5t57 44t17 82q0 86 -61 130t-178 44q-123 0 -186.5 -49t-75.5 -166h-170q4 170 120.5 264t321.5 94q106 0 192.5 -26.5t139.5 -75.5q27 -27 42 -59.5t21 -68.5t7.5 -74t1.5 -72q0 -119 -4.5 -236t-4.5 -235 q0 -59 15.5 -82t56.5 -23q12 0 20.5 1t22.5 5v-135q-29 -10 -59.5 -15t-59.5 -5q-150 0 -153 155q-78 -88 -169 -128t-214 -40q-158 0 -248 80t-90 219zM254 285q0 -82 56.5 -129t154.5 -47q61 0 119.5 19t102.5 53t71.5 79t27.5 96v193q-49 -37 -111.5 -46t-121.5 -18 q-47 -6 -100.5 -14t-97.5 -28.5t-72.5 -57.5t-28.5 -100z" />
<glyph unicode="b" horiz-adv-x="1214" d="M129 0v1458h174v-547q59 92 149.5 133t200.5 41q109 0 197 -38.5t150.5 -111.5t96 -175.5t33.5 -227.5q0 -129 -34.5 -232t-98 -177t-153.5 -114t-201 -40t-204 43t-146 142v-154h-164zM297 520q0 -188 88 -296.5t242 -108.5q147 0 235 112.5t88 302.5q0 94 -22.5 169 t-65.5 128.5t-102 82t-133 28.5q-90 0 -153.5 -36t-102.5 -94t-56.5 -133t-17.5 -155z" />
<glyph unicode="c" horiz-adv-x="1099" d="M78 514q0 131 36 237.5t101.5 181.5t159.5 114.5t211 39.5q195 0 310.5 -97t137.5 -277h-180q-47 229 -266 229q-152 0 -240 -110.5t-88 -303.5q0 -195 84 -304t231 -109q119 0 194 69.5t95 200.5h176q-23 -190 -142.5 -303t-317.5 -113q-123 0 -217.5 40t-157 112 t-95 172t-32.5 221z" />
<glyph unicode="d" horiz-adv-x="1214" d="M82 530q0 113 29.5 213.5t89 177t149.5 121.5t213 45q227 0 346 -172v543h174v-1458h-163v156q-100 -184 -349 -185q-113 0 -202.5 39t-153 112t-98.5 176t-35 232zM262 535q0 -193 88 -306.5t240 -113.5q154 0 238.5 109.5t84.5 303.5q0 80 -17 154t-57 130t-102.5 91 t-150.5 35q-150 0 -237 -108.5t-87 -294.5z" />
<glyph unicode="e" horiz-adv-x="1099" d="M76 514q0 129 35.5 234.5t100 180.5t155 116.5t200.5 41.5q131 0 222.5 -48t148.5 -128t83 -185t26 -220v-25h-795l-2 -12q0 -170 88 -265t242 -95q115 0 181 52t103 173h170q-41 -184 -156.5 -276.5t-304.5 -92.5q-236 0 -366.5 144.5t-130.5 404.5zM252 623h614 q-12 152 -92 236.5t-211 84.5q-129 0 -212 -86t-99 -235z" />
<glyph unicode="f" horiz-adv-x="606" d="M25 913v144h178v141q0 147 75.5 209.5t217.5 62.5q33 0 53 -2t59 -6v-151q-16 4 -42.5 6t-53.5 2q-41 0 -67.5 -6t-41 -21.5t-19.5 -43t-5 -70.5v-121h203v-144h-203v-913h-176v913h-178z" />
<glyph unicode="g" horiz-adv-x="1175" d="M80 524q0 106 29.5 208t89 180.5t147.5 125.5t207 47q111 0 198 -47t136 -135v154h160v-942q0 -68 -3.5 -120t-11.5 -93t-21.5 -74t-31.5 -66q-57 -94 -163.5 -143t-254.5 -49q-80 0 -154.5 15.5t-135 51t-101.5 95t-53 149.5h178q31 -176 272 -176q162 0 234.5 82 t77.5 264l2 129q-53 -100 -134 -146t-202 -46q-106 0 -192.5 37.5t-147 107.5t-93 169t-32.5 222zM258 522q0 -176 84 -280.5t223 -104.5q145 0 228.5 110.5t83.5 303.5q0 180 -83 281.5t-233 101.5q-141 0 -222 -109.5t-81 -302.5z" />
<glyph unicode="h" d="M131 0v1458h174v-551q117 176 346 176q188 0 272.5 -97t84.5 -263v-723h-174v682q0 55 -9.5 100t-36 79t-71.5 52.5t-115 18.5q-84 0 -140 -27.5t-91 -80t-50.5 -125t-15.5 -162.5v-537h-174z" />
<glyph unicode="i" horiz-adv-x="454" d="M139 0v1057h176v-1057h-176zM139 1245v213h176v-213h-176z" />
<glyph unicode="j" horiz-adv-x="454" d="M-31 -272q20 -2 31.5 -3t28.5 -1q45 0 68.5 10t33.5 30.5t11 51t1 71.5v1170h176v-1174q0 -74 -10 -131t-39.5 -97t-83 -60.5t-137.5 -20.5q-23 0 -38 2t-42 6v146zM143 1245v213h176v-213h-176z" />
<glyph unicode="k" horiz-adv-x="1062" d="M131 0v1458h170v-862l485 461h234l-420 -383l451 -674h-222l-362 553l-166 -154v-399h-170z" />
<glyph unicode="l" horiz-adv-x="454" d="M139 0v1458h176v-1458h-176z" />
<glyph unicode="m" horiz-adv-x="1746" d="M131 0v1057h164v-154q68 92 147.5 136t196.5 44q106 0 179 -43t114 -139q68 92 149.5 138t200.5 46q168 0 251 -92t83 -254v-739h-174v666q0 55 -6 104t-29 84t-65 55.5t-111 20.5q-74 0 -126 -24.5t-84 -67.5t-46 -103.5t-14 -134.5v-600h-175v678q0 51 -7 97t-27.5 80 t-58.5 53.5t-101 19.5q-88 0 -143.5 -30t-87 -80t-44 -117.5t-12.5 -141.5v-559h-174z" />
<glyph unicode="n" d="M131 0v1057h164v-164q66 98 151.5 145t208.5 47q96 0 164 -25.5t110 -74.5t60.5 -120.5t18.5 -162.5v-702h-174v623q0 63 -5.5 119.5t-27 99.5t-67.5 67.5t-128 24.5q-86 0 -143 -30t-92 -82t-50.5 -121.5t-15.5 -147.5v-553h-174z" />
<glyph unicode="o" horiz-adv-x="1175" d="M76 524q0 131 35.5 235.5t103.5 177.5t163 111.5t216 38.5q242 0 374 -144t132 -408q0 -270 -133 -419t-375 -149q-244 0 -380 147.5t-136 409.5zM256 528q0 -197 89 -305t249 -108q154 0 241 109.5t87 305.5q0 94 -24 170t-67 130.5t-104 83t-137 28.5 q-78 0 -139.5 -29.5t-104.5 -83t-66.5 -130t-23.5 -171.5z" />
<glyph unicode="p" horiz-adv-x="1214" d="M131 -408v1465h164v-150q61 98 150.5 140.5t205.5 42.5q111 0 200 -39t151.5 -111t96.5 -174t34 -231t-34 -232.5t-95.5 -176.5t-148.5 -113t-196 -40q-117 0 -201.5 41t-152.5 133v-555h-174zM299 532q0 -193 89 -302t243 -109q150 0 235.5 109.5t85.5 301.5 q0 193 -86.5 302.5t-240.5 109.5t-240 -109.5t-86 -302.5z" />
<glyph unicode="q" horiz-adv-x="1214" d="M84 524q0 131 34 235.5t97.5 178.5t153.5 113t202 39q119 0 205 -42t146 -141v150h161v-1465h-174v558q-53 -86 -143 -131.5t-211 -45.5q-119 0 -208 45t-147.5 121t-87 176.5t-28.5 208.5zM264 526q0 -186 87 -296.5t237 -110.5q154 0 240.5 111.5t86.5 306.5 q0 193 -87.5 300t-241.5 107q-74 0 -133.5 -29.5t-101.5 -84t-64.5 -132t-22.5 -172.5z" />
<glyph unicode="r" horiz-adv-x="681" d="M125 0v1057h166v-228q55 135 152.5 193.5t238.5 58.5v-180q-14 2 -22.5 2h-22.5q-109 0 -174.5 -38t-102 -101.5t-49 -146t-12.5 -171.5v-446h-174z" />
<glyph unicode="s" horiz-adv-x="1024" d="M66 334h172q8 -121 83.5 -172t202.5 -51q117 0 187.5 48t70.5 128q0 43 -20.5 71.5t-57 47t-85 32t-103.5 27.5q-68 16 -143.5 32.5t-138 48.5t-103.5 85t-41 145q0 143 109.5 227t294.5 84q88 0 165.5 -21.5t134 -63t89 -105t32.5 -147.5h-174q-10 104 -77.5 148 t-180.5 44q-100 0 -157.5 -39t-57.5 -104q0 -45 23.5 -73t62.5 -45t90.5 -28.5t104.5 -23.5q68 -16 139.5 -36t132 -54.5t99 -90t38.5 -141.5q0 -78 -31.5 -140.5t-89 -106.5t-138.5 -68.5t-179 -24.5q-217 0 -331.5 93.5t-122.5 273.5z" />
<glyph unicode="t" horiz-adv-x="645" d="M20 913v144h179v313h174v-313h211v-144h-211v-616q0 -37 1 -65.5t11 -48t33.5 -31t70.5 -11.5q27 0 46.5 1t48.5 5v-149q-41 -4 -66.5 -6t-66.5 -2q-98 0 -150.5 24.5t-75 70.5t-24.5 113.5t-2 153.5v561h-179z" />
<glyph unicode="u" d="M129 330v727h174v-680q0 -57 9.5 -103.5t34 -80t67.5 -52t110 -18.5q86 0 145.5 28.5t95.5 80t52.5 121t16.5 151.5v553h174v-1057h-162v166q-70 -100 -159 -147.5t-206 -47.5q-166 0 -259 91.5t-93 267.5z" />
<glyph unicode="v" horiz-adv-x="1024" d="M29 1057h194l299 -887l291 887h182l-387 -1057h-186z" />
<glyph unicode="w" horiz-adv-x="1552" d="M35 1057h192l242 -871l215 871h190l224 -871l239 871h181l-338 -1057h-185l-217 836l-215 -836h-188z" />
<glyph unicode="x" horiz-adv-x="1060" d="M18 0l398 557l-367 500h221l256 -363l262 363h211l-368 -488l411 -569h-223l-297 434l-293 -434h-211z" />
<glyph unicode="y" horiz-adv-x="1024" d="M16 1057h197l313 -842l297 842h183l-453 -1192q-23 -55 -46.5 -108.5t-57 -93.5t-83 -64.5t-118.5 -24.5q-35 0 -65.5 5t-63.5 13v156q41 -12 65.5 -17t46.5 -5q43 0 75 25.5t48 62.5l82 192z" />
<glyph unicode="z" horiz-adv-x="983" d="M45 0v133l631 780h-590v144h825v-115l-643 -795h670v-147h-893z" />
<glyph unicode="{" horiz-adv-x="681" d="M4 504v86q82 8 131 29.5t73.5 58.5t32 90t7.5 129v98q0 117 19.5 204t68.5 147.5t132 93.5t210 41v-107q-78 -6 -128 -25.5t-81 -55.5t-43 -88t-12 -124v-131q0 -76 -7.5 -143.5t-33 -120.5t-77.5 -90t-140 -49q92 -12 144 -49t76.5 -90.5t31 -121t6.5 -143.5v-106 q0 -78 11 -135.5t40 -95t81 -59t132 -26.5v-106q-121 8 -204 39t-133 87t-71.5 140t-21.5 199v119q0 80 -8.5 134t-35 90t-73.5 54.5t-127 26.5z" />
<glyph unicode="|" horiz-adv-x="454" d="M160 -438v2048h135v-2048h-135z" />
<glyph unicode="}" horiz-adv-x="681" d="M4 -279q80 4 132 26t81 59.5t40 95t11 135.5v106q0 76 6.5 143.5t31 121t76.5 90.5t144 49q-90 12 -141 49t-76.5 90t-33 120.5t-7.5 143.5v131q0 72 -12 124t-43 88t-82 55.5t-127 25.5v107q127 -8 210 -41t132 -93.5t68.5 -147.5t19.5 -204v-98q0 -76 7.5 -129t32 -90 t72.5 -58.5t132 -29.5v-86q-80 -8 -127 -26.5t-73.5 -54.5t-35 -90t-8.5 -134v-119q0 -115 -21.5 -199t-71.5 -140t-133 -87t-204 -39v106z" />
<glyph unicode="~" horiz-adv-x="1228" d="M78 381q4 55 21.5 106.5t49 91t77.5 63.5t108 24q72 0 153.5 -29t153.5 -51q27 -8 60.5 -20.5t68.5 -23t69.5 -18.5t63.5 -8q72 0 111 49t49 111h88q-14 -135 -80.5 -208t-177.5 -73q-31 0 -68 7.5t-74.5 18.5t-73.5 23.5t-67 22.5q-98 33 -165.5 55.5t-114.5 22.5 q-61 0 -105.5 -46t-54.5 -118h-92z" />
<glyph unicode="&#xa3;" d="M96 123q45 31 85 68.5t71 82.5t49 96.5t18 106.5q0 96 -53 199h-170v88h119q-41 70 -67.5 137.5t-26.5 151.5q0 94 34.5 172t96 133t148.5 86t192 31q109 0 197 -33t151.5 -93.5t97 -146.5t33.5 -190v-21h-178q-4 70 -22.5 129.5t-54.5 103.5t-92 69.5t-134 25.5 q-63 0 -116.5 -19.5t-91.5 -55.5t-59.5 -84t-21.5 -105q0 -86 36 -151.5t73 -139.5h325v-88h-280q23 -47 31 -84t8 -78q0 -74 -22.5 -128t-56.5 -97t-76 -80t-79 -74q53 27 111.5 45.5t117.5 18.5q78 0 168 -29q41 -12 83 -25.5t87 -13.5q113 0 199 74l86 -135 q-53 -53 -135 -79t-154 -26q-63 0 -113.5 16.5t-111.5 38.5q-51 16 -102.5 27.5t-92.5 11.5q-68 0 -113.5 -22.5t-99.5 -59.5z" />
<glyph unicode="&#xa9;" horiz-adv-x="1638" d="M55 731q0 158 60.5 296t164 241.5t242.5 164t297 60.5t297 -60.5t242.5 -164t164 -241.5t60.5 -296t-60.5 -297t-164 -242.5t-242.5 -164t-297 -60.5t-297 60.5t-242.5 164t-164 242.5t-60.5 297zM135 731q0 -141 53.5 -266t146.5 -218t218 -146.5t266 -53.5t266 53.5 t217.5 146.5t146.5 218t54 266t-53 265t-146.5 217.5t-218.5 146.5t-266 53t-266 -53t-218 -146.5t-146.5 -217.5t-53.5 -265zM426 727q0 100 29.5 184t82 143.5t126 93.5t161.5 34q72 0 135.5 -22.5t111.5 -63.5t78 -97.5t36 -121.5h-109q-18 98 -83.5 152t-164.5 54 q-127 0 -202.5 -96t-75.5 -256t78 -253t211 -93q94 0 158.5 51t84.5 142h107q-8 -66 -39 -118t-78 -91t-108.5 -59.5t-130.5 -20.5q-92 0 -168 30.5t-129.5 88t-82 138.5t-28.5 181z" />
<glyph unicode="&#xab;" horiz-adv-x="948" d="M102 457v174l318 243v-174l-211 -157l211 -160v-178zM506 453v178l311 243v-178l-205 -155l205 -160v-174z" />
<glyph unicode="&#xad;" horiz-adv-x="796" d="M100 483v172h596v-172h-596z" />
<glyph unicode="&#xae;" horiz-adv-x="819" d="M37 1116q0 78 29.5 146.5t80 120t118 81t145.5 29.5t146.5 -29.5t118.5 -81t79.5 -120t29.5 -146.5t-29.5 -146.5t-79.5 -118.5t-119 -80t-144 -30q-78 0 -146.5 30t-119 80t-80 118.5t-29.5 146.5zM94 1116q0 -66 25.5 -123t68.5 -100t100.5 -68.5t123.5 -25.5 q63 0 120.5 25.5t100.5 68.5t68.5 100.5t25.5 122.5q0 66 -25.5 124t-68.5 101t-100 68t-123 25t-123.5 -25t-100.5 -68t-67.5 -101t-24.5 -124zM264 928v385h142q29 0 59.5 -4t57 -15.5t43 -34t16.5 -59.5q0 -68 -72 -94q35 -16 50 -44t15 -79q0 -12 2.5 -25.5t10.5 -29.5 h-74q-6 12 -8 23.5t-2 19.5q0 70 -22.5 88t-92.5 18h-55v-149h-70zM334 1135h69q106 0 107 61q0 23 -10.5 35t-26.5 17t-35.5 6t-36.5 1h-67v-120z" />
<glyph unicode="&#xbb;" horiz-adv-x="948" d="M129 211v174l205 154l-205 159v176l311 -247v-174zM528 207v174l209 156l-209 161v181l318 -254v-174z" />
<glyph unicode="&#x401;" horiz-adv-x="1251" d="M162 0v1458h1009v-168h-817v-456h764v-162h-764v-504h828v-168h-1020zM385 1583v207h186v-207h-186zM774 1583v207h184v-207h-184z" />
<glyph unicode="&#x402;" horiz-adv-x="1527" d="M2 1290v168h1167v-168h-548v-553h4q47 84 142 126t202 42q111 0 201 -40t153 -112.5t98 -175t35 -229.5q0 -125 -40 -237.5t-111.5 -198.5t-173 -137t-224.5 -51h-26v165q96 6 167.5 44t118.5 99.5t71 142.5t24 173q0 186 -83 290.5t-235 104.5q-150 0 -236.5 -103 t-86.5 -290v-350h-193v1290h-426z" />
<glyph unicode="&#x403;" horiz-adv-x="1120" d="M162 0v1458h958v-168h-766v-1290h-192zM475 1538l166 291h215l-246 -291h-135z" />
<glyph unicode="&#x404;" horiz-adv-x="1478" d="M84 727q0 156 45 295t132 243.5t216 165t297 60.5q106 0 208.5 -28.5t185.5 -86t139.5 -143.5t68.5 -199h-194q-35 137 -143.5 214t-268.5 77q-113 0 -198 -38t-144 -103.5t-94 -152.5t-47 -185h700v-162h-708q6 -129 41.5 -231.5t99 -174t151.5 -109.5t197 -38 q176 0 283.5 95.5t140.5 279.5h194q-37 -258 -200.5 -399.5t-425.5 -141.5q-156 0 -281 53.5t-213 152.5t-135 239.5t-47 316.5z" />
<glyph unicode="&#x405;" horiz-adv-x="1327" d="M80 481h186q2 -98 38 -166.5t94.5 -110.5t136 -60.5t165.5 -18.5q63 0 128 12.5t117 43t85 81.5t33 129q0 70 -33 115t-89 74.5t-134 50t-168 41.5q-88 20 -178 41.5t-164 62.5t-120 110.5t-46 184.5q0 113 46 191.5t120 129t169 73t193 22.5q117 0 213.5 -27.5t166 -84 t110.5 -142.5t45 -203h-186q-16 160 -108.5 228.5t-254.5 68.5q-158 0 -244 -62.5t-86 -179.5q0 -61 30 -101t83 -65.5t126 -43t157 -35.5q88 -18 184 -45t175 -74t130 -122t51 -189q0 -121 -49 -206t-130 -137.5t-182.5 -76t-205.5 -23.5q-131 0 -241.5 31t-191.5 94.5 t-126 159.5t-45 229z" />
<glyph unicode="&#x406;" horiz-adv-x="530" d="M170 0v1458h192v-1458h-192z" />
<glyph unicode="&#x407;" horiz-adv-x="530" d="M-18 1583v207h184v-207h-184zM170 0v1458h192v-1458h-192zM369 1583v207h184v-207h-184z" />
<glyph unicode="&#x408;" horiz-adv-x="1062" d="M51 424v24.5t2 30.5h187v-51q0 -66 9 -121t34.5 -95t74 -63.5t127.5 -23.5q84 0 130.5 28.5t69 75.5t26.5 109.5t4 128.5v991h192v-1009q0 -102 -18.5 -191.5t-65.5 -154t-129 -101.5t-207 -37q-119 0 -201.5 30t-135 88t-76 144t-23.5 197z" />
<glyph unicode="&#x409;" horiz-adv-x="2048" d="M0 -2v164q20 -12 47 -16.5t57 -4.5q39 0 73 14.5t58.5 60.5t40 130t19.5 223l27 889h831v-590h369q217 0 332.5 -111.5t115.5 -320.5q0 -207 -116.5 -321.5t-331.5 -114.5h-561v1290h-455l-29 -821q-4 -111 -26.5 -202t-63.5 -157.5t-103.5 -103.5t-144.5 -37 q-43 0 -76.5 8.5t-62.5 20.5zM1153 168h303q320 0 320 268q0 135 -79 199.5t-241 64.5h-303v-532z" />
<glyph unicode="&#x40a;" horiz-adv-x="2048" d="M162 0v1462h192v-594h619v594h192v-594h357q217 0 332.5 -112.5t115.5 -321.5q0 -207 -116.5 -320.5t-331.5 -113.5h-549v705h-619v-705h-192zM1165 168h291q320 0 320 266q0 270 -320 271h-291v-537z" />
<glyph unicode="&#x40b;" horiz-adv-x="1527" d="M2 1290v168h1167v-168h-548v-446q59 16 147 38.5t178 22.5q168 0 265.5 -47t147.5 -114.5t64.5 -144.5t14.5 -138v-461h-195v444q0 45 -5 96.5t-33.5 94.5t-88 71.5t-170.5 28.5q-115 0 -193.5 -22.5t-131.5 -36.5v-676h-193v1290h-426z" />
<glyph unicode="&#x40c;" horiz-adv-x="1366" d="M162 0v1458h192v-723l740 723h252l-615 -586l639 -872h-246l-528 741l-242 -229v-512h-192zM557 1538l166 291h215l-246 -291h-135z" />
<glyph unicode="&#x40e;" horiz-adv-x="1251" d="M-2 1458h211l426 -889l418 889h207l-568 -1161q-47 -94 -93 -157.5t-93 -102.5t-97.5 -55.5t-103.5 -16.5q-49 0 -99 11.5t-81 25.5v164q20 -12 58 -24.5t106 -12.5q39 0 70.5 17.5t58 45t48 63.5t40.5 75l24 51zM328 1841h104q23 -74 75 -117t130 -43q80 0 130 43 t75 117h104q-20 -123 -96 -202.5t-211 -79.5q-129 0 -212 79.5t-99 202.5z" />
<glyph unicode="&#x40f;" horiz-adv-x="1478" d="M162 0v1458h192v-1290h770v1290h193v-1458h-479v-362h-193v362h-483z" />
<glyph unicode="&#x410;" horiz-adv-x="1327" d="M-16 0l573 1458h217l569 -1458h-215l-161 446h-613l-166 -446h-204zM410 600h499l-247 674z" />
<glyph unicode="&#x411;" horiz-adv-x="1402" d="M162 0v1458h999v-168h-807v-422h488q217 0 332.5 -113.5t115.5 -322.5q0 -207 -116.5 -319.5t-331.5 -112.5h-680zM354 168h424q320 0 320 264q0 268 -320 268h-424v-532z" />
<glyph unicode="&#x412;" horiz-adv-x="1402" d="M162 0v1458h622q90 0 174 -19.5t148.5 -62.5t103.5 -112.5t39 -169.5q0 -109 -58 -194t-157 -120q135 -31 208 -127t73 -241q0 -127 -47 -207t-125 -125t-177.5 -62.5t-203.5 -17.5h-600zM350 162h385q74 0 142.5 6t123 31.5t87 80t32.5 150.5q0 94 -38 146.5t-98 75 t-134 26.5t-148 4h-352v-520zM350 834h346q61 0 125 5t116 28.5t86 69.5t34 128t-30 128t-77 68.5t-109.5 27.5t-125.5 5h-365v-460z" />
<glyph unicode="&#x413;" horiz-adv-x="1120" d="M162 0v1458h958v-168h-766v-1290h-192z" />
<glyph unicode="&#x414;" horiz-adv-x="1478" d="M18 168h144q41 74 75.5 184.5t60.5 242.5t40 280.5t14 300.5v282h932v-1290h162v-530h-186v362h-1055v-362h-187v530zM375 168h717v1122h-551v-198q0 -135 -13.5 -271.5t-36 -258.5t-53 -224t-63.5 -170z" />
<glyph unicode="&#x415;" horiz-adv-x="1251" d="M162 0v1458h1009v-168h-817v-456h764v-162h-764v-504h828v-168h-1020z" />
<glyph unicode="&#x416;" horiz-adv-x="2048" d="M-16 0l647 860l-582 598h242l639 -678v678h188v-678l639 678h242l-582 -598l647 -860h-241l-533 725l-172 -180v-545h-188v545l-172 180l-533 -725h-241z" />
<glyph unicode="&#x417;" horiz-adv-x="1327" d="M76 481h186q2 -98 38 -166.5t94.5 -110.5t136 -60.5t165.5 -18.5q76 0 141.5 21.5t113.5 61.5t76 96t28 126q0 80 -31 130t-81 78t-116.5 38t-140.5 10q-31 0 -69.5 -1t-61.5 -3v160q25 -4 66 -4h65q70 0 128 13t100 44t66 81t24 124q0 68 -26 112.5t-70 71.5t-100 38 t-118 11q-162 0 -254 -68.5t-108 -228.5h-187q4 117 48 203t118 142.5t173.5 84t215.5 27.5q104 0 195.5 -22.5t159 -70.5t106.5 -123t39 -177q0 -57 -20.5 -109.5t-54.5 -93.5t-78 -70.5t-89 -44.5v-6q72 -14 127.5 -48t92 -81t55 -104.5t18.5 -116.5q0 -68 -30.5 -147.5 t-99 -149.5t-176 -116t-261.5 -46q-131 0 -241.5 31t-191.5 94.5t-126 159.5t-45 229z" />
<glyph unicode="&#x418;" horiz-adv-x="1478" d="M162 0v1458h192v-1235h4l715 1235h244v-1458h-193v1239h-4l-717 -1239h-241z" />
<glyph unicode="&#x419;" horiz-adv-x="1478" d="M162 0v1458h192v-1235h4l715 1235h244v-1458h-193v1239h-4l-717 -1239h-241zM428 1841h104q23 -74 75 -117t130 -43q80 0 130.5 43t74.5 117h105q-20 -123 -96.5 -202.5t-211.5 -79.5q-129 0 -212 79.5t-99 202.5z" />
<glyph unicode="&#x41a;" horiz-adv-x="1366" d="M162 0v1458h192v-723l740 723h252l-615 -586l639 -872h-246l-528 741l-242 -229v-512h-192z" />
<glyph unicode="&#x41b;" horiz-adv-x="1402" d="M0 -2v164q20 -12 54 -16.5t50 -4.5q39 0 73 14.5t58.5 60.5t40 130t19.5 223l27 889h915v-1458h-193v1290h-538l-29 -821q-4 -111 -26.5 -202t-63.5 -157.5t-103.5 -103.5t-144.5 -37q-31 0 -70.5 9.5t-68.5 19.5z" />
<glyph unicode="&#x41c;" horiz-adv-x="1783" d="M164 0v1458h266l469 -1235l453 1235h268v-1458h-182v1217l-457 -1217h-168l-465 1217v-1217h-184z" />
<glyph unicode="&#x41d;" horiz-adv-x="1478" d="M162 0v1458h192v-608h770v608h193v-1458h-193v682h-770v-682h-192z" />
<glyph unicode="&#x41e;" horiz-adv-x="1556" d="M80 745q0 170 49 308.5t140 235.5t219 150.5t288 53.5q170 0 300 -56.5t219 -156.5t135.5 -238.5t46.5 -300.5q0 -160 -44 -301t-132.5 -246.5t-218.5 -167t-304 -61.5q-176 0 -306 62.5t-218 169t-131 248t-43 300.5zM272 731q0 -137 36 -247.5t102.5 -189.5t160 -121 t209.5 -42q115 0 208 43t158.5 121t101.5 189.5t36 246.5t-36 244.5t-102.5 187.5t-159.5 120t-210 42q-129 0 -224 -49t-156.5 -131t-92.5 -189.5t-31 -224.5z" />
<glyph unicode="&#x41f;" horiz-adv-x="1478" d="M162 0v1458h1155v-1458h-193v1290h-770v-1290h-192z" />
<glyph unicode="&#x420;" horiz-adv-x="1327" d="M170 0v1458h600q104 0 193.5 -22.5t154 -73.5t101 -131t36.5 -193q0 -123 -37.5 -208t-104 -136t-158 -73.5t-197.5 -22.5h-396v-598h-192zM362 760h371q70 0 130.5 11t104.5 41t69.5 82t25.5 132q0 88 -28.5 140.5t-78 80t-114 36.5t-135.5 9h-345v-532z" />
<glyph unicode="&#x421;" horiz-adv-x="1478" d="M90 727q0 156 45 295t132 243.5t216 165t297 60.5q106 0 211 -29.5t189 -89t139 -147.5t65 -205h-192q-33 143 -142.5 224t-273.5 81q-129 0 -222 -50t-153.5 -133t-88 -190.5t-27.5 -222.5q0 -139 33.5 -249.5t97 -188.5t153.5 -119t205 -41q186 0 297 107.5t133 312.5 h193q-12 -139 -61.5 -247.5t-131.5 -184.5t-192.5 -115t-245.5 -39q-156 0 -281 53.5t-213 152.5t-135 239.5t-47 316.5z" />
<glyph unicode="&#x422;" horiz-adv-x="1175" d="M2 1290v168h1172v-168h-490v-1290h-192v1290h-490z" />
<glyph unicode="&#x423;" horiz-adv-x="1251" d="M-2 1458h211l426 -889l418 889h207l-568 -1161q-47 -94 -93 -157.5t-93 -102.5t-97.5 -55.5t-103.5 -16.5q-49 0 -99 11.5t-81 25.5v164q20 -12 58 -24.5t106 -12.5q39 0 70.5 17.5t58 45t48 63.5t40.5 75l24 51z" />
<glyph unicode="&#x424;" horiz-adv-x="1593" d="M61 735q0 137 53.5 243.5t141.5 179.5t202.5 110t239.5 37v153h193v-153q127 0 242.5 -37t202.5 -109t139.5 -178.5t52.5 -245.5q0 -143 -53.5 -248.5t-141.5 -174t-202.5 -102.5t-239.5 -34v-176h-193v176q-125 0 -239.5 35t-202.5 105.5t-141.5 175t-53.5 243.5z M256 735q0 -102 34 -175t93 -121t140 -73.5t175 -31.5v813q-94 -4 -175 -32t-140 -78t-93 -125.5t-34 -176.5zM891 334q94 6 175 31.5t140.5 73.5t93 121t33.5 175q0 100 -33.5 176t-93 126t-140.5 78t-175 32v-813z" />
<glyph unicode="&#x425;" horiz-adv-x="1251" d="M-10 0l514 752l-481 706h231l367 -561l378 561h220l-486 -706l512 -752h-233l-394 600l-407 -600h-221z" />
<glyph unicode="&#x426;" horiz-adv-x="1478" d="M150 0v1458h192v-1290h754v1290h192v-1290h160v-530h-186v362h-1112z" />
<glyph unicode="&#x427;" horiz-adv-x="1366" d="M96 1042v416h193v-399q0 -45 9 -96.5t41 -94.5t95.5 -71.5t173.5 -28.5q137 0 243.5 18.5t162.5 30.5v641h192v-1458h-192v649q-27 -6 -74 -15t-103.5 -16.5t-117 -13.5t-111.5 -6q-168 0 -268 47t-154.5 114.5t-72 144.5t-17.5 138z" />
<glyph unicode="&#x428;" horiz-adv-x="2197" d="M162 0v1458h192v-1290h647v1290h193v-1290h647v1290h193v-1458h-1872z" />
<glyph unicode="&#x429;" horiz-adv-x="2217" d="M150 0v1458h192v-1290h647v1290h193v-1290h647v1290h192v-1290h166v-530h-188v362h-1849z" />
<glyph unicode="&#x42a;" horiz-adv-x="1644" d="M4 1290v168h668v-590h446q217 0 333 -113.5t116 -322.5q0 -207 -117 -319.5t-332 -112.5h-639v1290h-475zM672 168h381q319 0 319 264q0 268 -319 268h-381v-532z" />
<glyph unicode="&#x42b;" horiz-adv-x="1783" d="M162 0v1458h192v-592h447q217 0 332.5 -112.5t115.5 -321.5q0 -207 -116.5 -319.5t-331.5 -112.5h-639zM354 168h381q320 0 320 264q0 268 -320 268h-381v-532zM1432 0v1458h192v-1458h-192z" />
<glyph unicode="&#x42c;" horiz-adv-x="1327" d="M162 0v1458h192v-592h447q217 0 332.5 -112.5t115.5 -321.5q0 -207 -116.5 -319.5t-331.5 -112.5h-639zM354 168h381q320 0 320 264q0 268 -320 268h-381v-532z" />
<glyph unicode="&#x42d;" horiz-adv-x="1478" d="M86 506h195q33 -184 140 -279.5t284 -95.5q104 0 191 38t151.5 109.5t102.5 174t44 231.5h-709v162h701q-12 98 -46 185t-92.5 152.5t-142.5 103.5t-196 38q-160 0 -271.5 -77t-146.5 -214h-195q12 113 69.5 199t141.5 143.5t187.5 86t210.5 28.5q172 0 301 -60.5 t214 -165t127 -243.5t42 -295q0 -176 -51.5 -316.5t-141.5 -239.5t-214 -152.5t-269 -53.5q-262 0 -426 141.5t-201 399.5z" />
<glyph unicode="&#x42e;" horiz-adv-x="2048" d="M162 0v1458h192v-608h279q14 147 66.5 267t138.5 203t201.5 128t256.5 45q162 0 288 -56.5t211 -156.5t129 -238.5t44 -300.5q0 -160 -42 -301t-126 -246.5t-210 -167t-292 -61.5q-160 0 -281.5 56.5t-204.5 153.5t-129 228.5t-54 278.5h-275v-682h-192zM821 731 q0 -137 34 -247.5t96.5 -189.5t151.5 -121t197 -42q106 0 194.5 43t151 121t96.5 189.5t34 246.5t-34 244.5t-96.5 187.5t-151.5 120t-198 42q-121 0 -211 -49t-148 -131t-87 -189.5t-29 -224.5z" />
<glyph unicode="&#x42f;" horiz-adv-x="1366" d="M-8 0l487 629q-172 23 -267 125t-95 286q0 207 122.5 312.5t338.5 105.5h626v-1458h-192v623h-301l-482 -623h-237zM311 1040q0 -135 85 -194.5t247 -59.5h369v508h-369q-160 0 -246 -59t-86 -195z" />
<glyph unicode="&#x430;" horiz-adv-x="1099" d="M74 270q0 283 375 330q94 12 158.5 19.5t104.5 22.5t57 44t17 82q0 86 -61 130t-178 44q-123 0 -186.5 -49t-75.5 -166h-170q4 170 120.5 264t321.5 94q106 0 192.5 -26.5t139.5 -75.5q27 -27 42 -59.5t21 -68.5t7.5 -74t1.5 -72q0 -119 -4.5 -236t-4.5 -235 q0 -59 15.5 -82t56.5 -23q12 0 20.5 1t22.5 5v-135q-29 -10 -59.5 -15t-59.5 -5q-150 0 -153 155q-78 -88 -169 -128t-214 -40q-158 0 -248 80t-90 219zM254 285q0 -82 56.5 -129t154.5 -47q61 0 119.5 19t102.5 53t71.5 79t27.5 96v193q-49 -37 -111.5 -46t-121.5 -18 q-47 -6 -100.5 -14t-97.5 -28.5t-72.5 -57.5t-28.5 -100z" />
<glyph unicode="&#x431;" horiz-adv-x="1175" d="M102 598q0 76 5.5 158t19.5 161.5t38.5 153.5t63.5 133q70 109 168.5 161t249.5 62q100 8 160.5 16.5t83.5 49.5h174q-14 -82 -59 -125t-107.5 -64.5t-134.5 -26.5t-141 -11q-86 -6 -153 -41t-114 -93.5t-74.5 -137.5t-39.5 -173h6q45 104 141 172t229 68 q223 0 352.5 -140.5t129.5 -400.5q0 -266 -130 -410.5t-366 -144.5q-92 0 -175 27.5t-147.5 83t-107.5 138.5t-59 192q-12 86 -13 192zM281 514q0 -90 22.5 -164t63.5 -126t101 -81.5t138 -29.5q147 0 231.5 105.5t84.5 297.5q0 186 -86 292.5t-234 106.5 q-147 0 -234 -107.5t-87 -293.5z" />
<glyph unicode="&#x432;" horiz-adv-x="1099" d="M127 0v1057h489q70 0 134.5 -10.5t116 -38t82 -77.5t30.5 -130q0 -86 -41 -139.5t-115 -88.5v-2q92 -18 146.5 -85.5t54.5 -174.5q0 -68 -23.5 -125t-66.5 -98t-102.5 -64.5t-129.5 -23.5h-575zM297 150h373q84 0 129 50t45 126q0 72 -48 114.5t-157 42.5h-342v-333z M297 631h301q113 0 157 37t44 104q0 66 -43 100.5t-158 34.5h-301v-276z" />
<glyph unicode="&#x433;" horiz-adv-x="860" d="M135 0v1057h725v-154h-551v-903h-174z" />
<glyph unicode="&#x434;" horiz-adv-x="1175" d="M16 154h115q23 43 46.5 117.5t43 165.5t31.5 192.5t12 201.5v226h754v-903h137v-490h-166v336h-807v-336h-166v490zM311 154h533v749h-410v-88q0 -98 -11 -198.5t-28.5 -189.5t-40 -159.5t-43.5 -113.5z" />
<glyph unicode="&#x435;" horiz-adv-x="1099" d="M76 514q0 129 35.5 234.5t100 180.5t155 116.5t200.5 41.5q131 0 222.5 -48t148.5 -128t83 -185t26 -220v-25h-795l-2 -12q0 -170 88 -265t242 -95q115 0 181 52t103 173h170q-41 -184 -156.5 -276.5t-304.5 -92.5q-236 0 -366.5 144.5t-130.5 404.5zM252 623h614 q-12 152 -92 236.5t-211 84.5q-129 0 -212 -86t-99 -235z" />
<glyph unicode="&#x436;" horiz-adv-x="1593" d="M0 0l463 623l-404 434h215l431 -486h4v486h174v-486h4l430 486h215l-404 -434l463 -623h-215l-362 512l-131 -133v-379h-174v379l-131 133l-363 -512h-215z" />
<glyph unicode="&#x437;" horiz-adv-x="1024" d="M53 330h176q8 -115 86 -168t195 -53q125 0 192.5 59t67.5 141q0 80 -51 126t-174 46h-146v142h117q92 0 157.5 38.5t65.5 133.5q0 59 -57 105t-166 46q-47 0 -93 -10t-83 -33.5t-61.5 -60.5t-30.5 -90h-176q6 98 47 162.5t102.5 102.5t139 54t157.5 16q82 0 153.5 -16 t126 -52t86 -89t31.5 -127q0 -92 -52 -150.5t-118 -72.5v-5q37 -6 74 -25.5t65.5 -51t47 -77.5t18.5 -108q0 -86 -36.5 -150.5t-98 -108.5t-140.5 -65.5t-163 -21.5q-209 0 -329 94.5t-130 268.5z" />
<glyph unicode="&#x438;" d="M131 0v1057h174v-862h4l475 862h224v-1057h-174v862h-5l-475 -862h-223z" />
<glyph unicode="&#x439;" d="M131 0v1057h174v-862h4l475 862h224v-1057h-174v862h-5l-475 -862h-223zM260 1458h105q23 -74 75 -117t129 -43q80 0 130.5 43t74.5 117h105q-20 -123 -96 -202.5t-212 -79.5q-129 0 -212 79.5t-99 202.5z" />
<glyph unicode="&#x43a;" horiz-adv-x="1062" d="M131 0v1057h174v-504l483 504h234l-426 -416l481 -641h-221l-385 520l-166 -162v-358h-174z" />
<glyph unicode="&#x43b;" d="M29 0v141q16 -10 45.5 -12t46.5 -2q27 0 53.5 13.5t48 46t35.5 89t16 142.5l19 639h719v-1057h-174v903h-377l-15 -467q-4 -129 -29.5 -217t-65.5 -142t-91 -77t-106 -23q-39 0 -74 7.5t-51 15.5z" />
<glyph unicode="&#x43c;" horiz-adv-x="1402" d="M129 0v1057h250l321 -856h5l321 856h250v-1057h-174v834h-6l-314 -834h-159l-314 834h-6v-834h-174z" />
<glyph unicode="&#x43d;" d="M131 0v1057h174v-420h529v420h174v-1057h-174v483h-529v-483h-174z" />
<glyph unicode="&#x43e;" horiz-adv-x="1175" d="M76 524q0 131 35.5 235.5t103.5 177.5t163 111.5t216 38.5q242 0 374 -144t132 -408q0 -270 -133 -419t-375 -149q-244 0 -380 147.5t-136 409.5zM256 528q0 -197 89 -305t249 -108q154 0 241 109.5t87 305.5q0 94 -24 170t-67 130.5t-104 83t-137 28.5 q-78 0 -139.5 -29.5t-104.5 -83t-66.5 -130t-23.5 -171.5z" />
<glyph unicode="&#x43f;" d="M131 0v1057h877v-1057h-174v903h-529v-903h-174z" />
<glyph unicode="&#x440;" horiz-adv-x="1214" d="M131 -408v1465h164v-150q61 98 150.5 140.5t205.5 42.5q111 0 200 -39t151.5 -111t96.5 -174t34 -231t-34 -232.5t-95.5 -176.5t-148.5 -113t-196 -40q-117 0 -201.5 41t-152.5 133v-555h-174zM299 532q0 -193 89 -302t243 -109q150 0 235.5 109.5t85.5 301.5 q0 193 -86.5 302.5t-240.5 109.5t-240 -109.5t-86 -302.5z" />
<glyph unicode="&#x441;" horiz-adv-x="1099" d="M78 514q0 131 36 237.5t101.5 181.5t159.5 114.5t211 39.5q195 0 310.5 -97t137.5 -277h-180q-47 229 -266 229q-152 0 -240 -110.5t-88 -303.5q0 -195 84 -304t231 -109q119 0 194 69.5t95 200.5h176q-23 -190 -142.5 -303t-317.5 -113q-123 0 -217.5 40t-157 112 t-95 172t-32.5 221z" />
<glyph unicode="&#x442;" horiz-adv-x="948" d="M8 903v154h932v-154h-379v-903h-174v903h-379z" />
<glyph unicode="&#x443;" horiz-adv-x="1024" d="M16 1057h197l313 -842l297 842h183l-453 -1192q-23 -55 -46.5 -108.5t-57 -93.5t-83 -64.5t-118.5 -24.5q-35 0 -65.5 5t-63.5 13v156q41 -12 65.5 -17t46.5 -5q43 0 75 25.5t48 62.5l82 192z" />
<glyph unicode="&#x444;" horiz-adv-x="1638" d="M82 545q0 125 28.5 225t83 170t130 106.5t170.5 36.5q33 0 68.5 -10t67.5 -26.5t57.5 -37t39.5 -40.5h6v489h172v-489h6q14 20 40 40.5t57.5 37t66.5 26.5t70 10q94 0 170 -36.5t130 -106.5t82.5 -170t28.5 -225q0 -111 -22.5 -213.5t-72.5 -182t-131 -127t-200 -47.5 q-29 0 -61.5 9.5t-63 24t-56 33.5t-40.5 38h-4v-488h-172v488h-4q-16 -18 -40.5 -37.5t-55.5 -34t-63.5 -24t-61.5 -9.5q-119 0 -200 47.5t-131 127t-72.5 182t-22.5 213.5zM262 541q0 -74 12.5 -149t42 -135t81 -98t130.5 -38q80 0 137.5 40t67.5 97v533q-12 43 -36.5 70.5 t-54.5 45t-62.5 24.5t-61.5 7q-68 0 -116 -29.5t-79.5 -82t-46 -126t-14.5 -159.5zM905 258q10 -57 67.5 -97t137.5 -40t131 38t81 98t42 135t12 149q0 86 -14 159.5t-46 126t-80 82t-116 29.5q-29 0 -61.5 -7t-62 -24.5t-54 -45t-37.5 -70.5v-533z" />
<glyph unicode="&#x445;" horiz-adv-x="1060" d="M18 0l398 557l-367 500h221l256 -363l262 363h211l-368 -488l411 -569h-223l-297 434l-293 -434h-211z" />
<glyph unicode="&#x446;" horiz-adv-x="1167" d="M131 0v1057h174v-903h520v903h174v-903h138v-490h-166v336h-840z" />
<glyph unicode="&#x447;" horiz-adv-x="1079" d="M102 723v334h174v-305q0 -102 52.5 -143.5t150.5 -41.5q39 0 84 5.5t87 13.5t76 16t48 12v443h174v-1057h-174v467q-14 -4 -52 -12.5t-86 -15.5t-99.5 -13t-90.5 -6q-160 0 -252 74.5t-92 228.5z" />
<glyph unicode="&#x448;" horiz-adv-x="1656" d="M131 0v1057h174v-903h436v903h174v-903h437v903h174v-1057h-1395z" />
<glyph unicode="&#x449;" horiz-adv-x="1687" d="M131 0v1057h174v-903h436v903h174v-903h437v903h174v-903h137v-490h-166v336h-1366z" />
<glyph unicode="&#x44a;" horiz-adv-x="1251" d="M6 903v154h479v-404h377q156 0 250 -85.5t94 -237.5q0 -150 -90 -240t-246 -90h-559v903h-305zM485 154h322q109 0 164 45t55 131q0 174 -219 174h-322v-350z" />
<glyph unicode="&#x44b;" horiz-adv-x="1441" d="M125 0v1057h174v-404h328q156 0 250 -85.5t94 -237.5q0 -150 -90 -240t-246 -90h-510zM299 154h272q109 0 164.5 45t55.5 131q0 174 -220 174h-272v-350zM1139 0v1057h174v-1057h-174z" />
<glyph unicode="&#x44c;" horiz-adv-x="1062" d="M125 0v1057h174v-404h377q156 0 250 -85.5t94 -237.5q0 -150 -90 -240t-246 -90h-559zM299 154h322q109 0 164 45t55 131q0 174 -219 174h-322v-350z" />
<glyph unicode="&#x44d;" horiz-adv-x="1099" d="M63 360h177q25 -119 98.5 -182t185.5 -63q139 0 221 96t93 270h-443v142h439q-23 150 -107 234.5t-215 84.5q-199 0 -256 -192h-184q29 164 143.5 250.5t298.5 86.5q117 0 211 -39.5t159.5 -114.5t101.5 -181.5t36 -237.5q0 -121 -33 -221t-95.5 -172t-156.5 -112 t-217 -40q-193 0 -310.5 105.5t-146.5 285.5z" />
<glyph unicode="&#x44e;" horiz-adv-x="1568" d="M131 0v1057h174v-420h213q29 211 157 330.5t333 119.5q231 0 358 -144t127 -408q0 -270 -127 -419t-360 -149q-225 0 -355.5 136.5t-140.5 379.5h-205v-483h-174zM690 528q0 -197 83 -305t235 -108q145 0 226 109.5t81 305.5q0 190 -83 301t-228 111t-229.5 -111.5 t-84.5 -302.5z" />
<glyph unicode="&#x44f;" horiz-adv-x="1099" d="M-4 0l364 438q-113 16 -187.5 96t-74.5 211q0 150 89 231t243 81h537v-1057h-174v432h-232l-334 -432h-231zM276 745q0 -82 49.5 -120.5t159.5 -38.5h308v317h-308q-109 0 -159 -39t-50 -119z" />
<glyph unicode="&#x451;" horiz-adv-x="1099" d="M76 514q0 129 35.5 234.5t100 180.5t155 116.5t200.5 41.5q131 0 222.5 -48t148.5 -128t83 -185t26 -220v-25h-795l-2 -12q0 -170 88 -265t242 -95q115 0 181 52t103 173h170q-41 -184 -156.5 -276.5t-304.5 -92.5q-236 0 -366.5 144.5t-130.5 404.5zM252 623h614 q-12 152 -92 236.5t-211 84.5q-129 0 -212 -86t-99 -235zM287 1249v207h186v-207h-186zM676 1249v207h184v-207h-184z" />
<glyph unicode="&#x452;" d="M18 903v154h154v401h174v-401h483v-154h-483v-334h4q47 92 133 139.5t209 47.5q356 0 357 -387v-193q0 -127 -41 -231.5t-115 -181t-176.5 -120.5t-224.5 -49v162q172 20 277 133t105 306v178q0 113 -59 172t-164 59q-141 0 -223 -80t-82 -233v-291h-174v903h-154z" />
<glyph unicode="&#x453;" horiz-adv-x="860" d="M135 0v1057h725v-154h-551v-903h-174zM272 1208l166 291h215l-245 -291h-136z" />
<glyph unicode="&#x454;" horiz-adv-x="1099" d="M82 514q0 131 36 237.5t101.5 181.5t159.5 114.5t211 39.5q184 0 297.5 -87t144.5 -250h-184q-57 193 -256 192q-133 0 -217 -85t-105 -234h447v-142h-453q10 -174 93 -270t223 -96q113 0 186.5 63.5t97.5 181.5h176q-29 -180 -147.5 -285.5t-308.5 -105.5 q-123 0 -217.5 40t-157 112t-95 172t-32.5 221z" />
<glyph unicode="&#x455;" horiz-adv-x="1024" d="M66 334h172q8 -121 83.5 -172t202.5 -51q117 0 187.5 48t70.5 128q0 43 -20.5 71.5t-57 47t-85 32t-103.5 27.5q-68 16 -143.5 32.5t-138 48.5t-103.5 85t-41 145q0 143 109.5 227t294.5 84q88 0 165.5 -21.5t134 -63t89 -105t32.5 -147.5h-174q-10 104 -77.5 148 t-180.5 44q-100 0 -157.5 -39t-57.5 -104q0 -45 23.5 -73t62.5 -45t90.5 -28.5t104.5 -23.5q68 -16 139.5 -36t132 -54.5t99 -90t38.5 -141.5q0 -78 -31.5 -140.5t-89 -106.5t-138.5 -68.5t-179 -24.5q-217 0 -331.5 93.5t-122.5 273.5z" />
<glyph unicode="&#x456;" horiz-adv-x="454" d="M139 0v1057h176v-1057h-176zM139 1245v213h176v-213h-176z" />
<glyph unicode="&#x457;" horiz-adv-x="454" d="M-59 1249v209h184v-209h-184zM139 0v1057h176v-1057h-176zM330 1249v209h182v-209h-182z" />
<glyph unicode="&#x458;" horiz-adv-x="454" d="M-31 -272q20 -2 31.5 -3t28.5 -1q45 0 68.5 10t33.5 30.5t11 51t1 71.5v1170h176v-1174q0 -74 -10 -131t-39.5 -97t-83 -60.5t-137.5 -20.5q-23 0 -38 2t-42 6v146zM143 1245v213h176v-213h-176z" />
<glyph unicode="&#x459;" horiz-adv-x="1593" d="M18 0v141q16 -10 46 -12t47 -2q27 0 53 13.5t47.5 46t36 89t16.5 142.5l19 639h653v-400h289q156 0 239.5 -87.5t83.5 -239.5q0 -150 -84 -240t-239 -90h-463v903h-311l-15 -467q-4 -129 -29.5 -217t-65.5 -142t-91 -77t-107 -23q-39 0 -73.5 7.5t-51.5 15.5zM936 154 h225q109 0 158 45t49 131t-48 130t-159 44h-225v-350z" />
<glyph unicode="&#x45a;" horiz-adv-x="1593" d="M131 0v1057h174v-400h447v400h174v-400h299q156 0 239.5 -88t83.5 -239q0 -150 -84 -240t-239 -90h-473v504h-447v-504h-174zM926 154h235q109 0 158 45t49 131t-48 130t-159 44h-235v-350z" />
<glyph unicode="&#x45b;" d="M18 903v154h154v401h174v-401h463v-154h-463v-328h4q94 180 342 181q356 0 357 -387v-369h-175v389q0 100 -59 156.5t-164 56.5q-141 0 -223 -79t-82 -232v-291h-174v903h-154z" />
<glyph unicode="&#x45c;" horiz-adv-x="1062" d="M131 0v1057h174v-504l483 504h234l-426 -416l481 -641h-221l-385 520l-166 -162v-358h-174zM395 1208l166 291h215l-246 -291h-135z" />
<glyph unicode="&#x45e;" horiz-adv-x="1024" d="M16 1057h197l313 -842l297 842h183l-453 -1192q-23 -55 -46.5 -108.5t-57 -93.5t-83 -64.5t-118.5 -24.5q-35 0 -65.5 5t-63.5 13v156q41 -12 65.5 -17t46.5 -5q43 0 75 25.5t48 62.5l82 192zM213 1458h104q23 -74 75 -117t130 -43q80 0 130 43t75 117h104 q-20 -123 -96 -202.5t-211 -79.5q-129 0 -212 79.5t-99 202.5z" />
<glyph unicode="&#x45f;" d="M131 0v1057h174v-903h529v903h174v-1057h-353v-336h-174v336h-350z" />
<glyph unicode="&#x490;" horiz-adv-x="1120" d="M162 0v1458h764v330h194v-498h-766v-1290h-192z" />
<glyph unicode="&#x491;" horiz-adv-x="860" d="M131 0v1057h543v319h174v-473h-543v-903h-174z" />
<glyph unicode="&#x2000;" horiz-adv-x="920" />
<glyph unicode="&#x2001;" horiz-adv-x="1841" />
<glyph unicode="&#x2002;" horiz-adv-x="920" />
<glyph unicode="&#x2003;" horiz-adv-x="1841" />
<glyph unicode="&#x2004;" horiz-adv-x="613" />
<glyph unicode="&#x2005;" horiz-adv-x="460" />
<glyph unicode="&#x2006;" horiz-adv-x="306" />
<glyph unicode="&#x2007;" horiz-adv-x="306" />
<glyph unicode="&#x2008;" horiz-adv-x="230" />
<glyph unicode="&#x2009;" horiz-adv-x="368" />
<glyph unicode="&#x200a;" horiz-adv-x="102" />
<glyph unicode="&#x2010;" horiz-adv-x="796" d="M100 483v172h596v-172h-596z" />
<glyph unicode="&#x2011;" horiz-adv-x="796" d="M100 483v172h596v-172h-596z" />
<glyph unicode="&#x2012;" horiz-adv-x="796" d="M100 483v172h596v-172h-596z" />
<glyph unicode="&#x2013;" horiz-adv-x="1024" d="M0 485v168h1024v-168h-1024z" />
<glyph unicode="&#x2014;" horiz-adv-x="2048" d="M0 485v168h2048v-168h-2048z" />
<glyph unicode="&#x2018;" horiz-adv-x="569" d="M160 969v223q0 106 62.5 190t168.5 109v-102q-113 -37 -117 -201h117v-219h-231z" />
<glyph unicode="&#x2019;" horiz-adv-x="569" d="M176 936v102q113 37 117 201h-117v219h232v-223q0 -106 -62.5 -190t-169.5 -109z" />
<glyph unicode="&#x201a;" horiz-adv-x="569" d="M170 0v211h221v-166q0 -59 -11 -113.5t-38 -99.5t-69 -79t-103 -52v98q68 29 88.5 81t24.5 120h-113z" />
<glyph unicode="&#x201c;" horiz-adv-x="872" d="M137 979v166q0 59 11.5 113.5t38 99.5t68.5 78.5t103 52.5v-98q-68 -29 -88 -81.5t-24 -119.5h112v-211h-221zM510 979v166q0 59 11 113.5t38 99.5t69 78.5t103 52.5v-98q-68 -29 -88 -81.5t-25 -119.5h113v-211h-221z" />
<glyph unicode="&#x201d;" horiz-adv-x="872" d="M139 948v99q68 29 88.5 81t24.5 119h-113v211h221v-166q0 -59 -11 -113.5t-37.5 -99.5t-68.5 -78.5t-104 -52.5zM512 948v99q68 29 88.5 81t24.5 119h-113v211h221v-166q0 -59 -11 -113.5t-38 -99.5t-69 -78.5t-103 -52.5z" />
<glyph unicode="&#x201e;" horiz-adv-x="872" d="M141 0v211h221v-166q0 -59 -11 -113.5t-37.5 -99.5t-68.5 -79t-104 -52v98q68 29 88.5 81t24.5 120h-113zM514 0v211h221v-166q0 -59 -11 -113.5t-38 -99.5t-69 -79t-103 -52v98q68 29 88.5 81t24.5 120h-113z" />
<glyph unicode="&#x2022;" horiz-adv-x="1024" d="M147 729q0 76 29 142.5t78 115.5t115.5 78t142.5 29t142.5 -29t115.5 -78t78 -115.5t29 -142.5t-29 -142.5t-78 -115.5t-115.5 -77.5t-142.5 -28.5t-142.5 28.5t-115.5 77.5t-78 115.5t-29 142.5z" />
<glyph unicode="&#x2026;" horiz-adv-x="2048" d="M258 0v219h168v-219h-168zM940 0v219h168v-219h-168zM1622 0v219h168v-219h-168z" />
<glyph unicode="&#x202f;" horiz-adv-x="368" />
<glyph unicode="&#x2039;" horiz-adv-x="530" d="M86 453v178l311 241v-176l-207 -153l207 -162v-176z" />
<glyph unicode="&#x203a;" horiz-adv-x="530" d="M133 209v176l207 154l-207 159v176l311 -245v-180z" />
<glyph unicode="&#x205f;" horiz-adv-x="460" />
<glyph unicode="&#x2122;" horiz-adv-x="2027" d="M229 1372v86h600v-86h-249v-643h-101v643h-250zM961 729v729h149l219 -581l219 581h146v-729h-90v633l-236 -633h-82l-235 633v-633h-90z" />
<glyph unicode="&#xe000;" horiz-adv-x="1055" d="M0 0v1055h1055v-1055h-1055z" />
</font>
</defs>
</svg>
