<?xml version="1.0" standalone="no"?>
<!DOCTYPE svg PUBLIC "-//W3C//DTD SVG 1.1//EN" "http://www.w3.org/Graphics/SVG/1.1/DTD/svg11.dtd" >
<svg xmlns="http://www.w3.org/2000/svg">
<metadata></metadata>
<defs>
<font id="helvetica-7-boldregular" horiz-adv-x="1175" >
<font-face units-per-em="2048" ascent="1638" descent="-410" />
<missing-glyph horiz-adv-x="569" />
<glyph horiz-adv-x="2048" />
<glyph horiz-adv-x="2048" />
<glyph unicode="&#xd;" horiz-adv-x="569" />
<glyph unicode=" "  horiz-adv-x="569" />
<glyph unicode="&#x09;" horiz-adv-x="569" />
<glyph unicode="&#xa0;" horiz-adv-x="569" />
<glyph unicode="!" horiz-adv-x="569" d="M125 0v313h317v-313h-317zM131 1065v393h305v-389l-80 -625h-145z" />
<glyph unicode="&#x22;" horiz-adv-x="948" d="M184 1421h217l-36 -600h-142zM547 1421h217l-39 -600h-139z" />
<glyph unicode="#" horiz-adv-x="1138" d="M6 393v172h215l53 289h-180v174h213l76 393h209l-76 -393h223l76 393h209l-76 -393h182v-174h-215l-53 -289h180v-172h-213l-75 -393h-209l76 393h-226l-73 -393h-209l75 393h-182zM430 565h223l54 289h-224z" />
<glyph unicode="$" horiz-adv-x="1138" d="M-12 444l2 13h291v-19q0 -233 231 -252v437q-90 14 -176 40.5t-153.5 73.5t-108.5 120t-41 179q0 109 39 185.5t104.5 128t152.5 78t183 32.5v156h111v-156q221 -4 346 -109.5t125 -287.5v-29h-273v15q0 100 -52 147t-146 57v-395l12 -2q94 -16 184 -44t161 -78t115 -127 t44 -189q0 -100 -37 -183t-104.5 -142.5t-163 -92.5t-211.5 -35v-172h-111v172q-111 2 -207 33t-166.5 90t-110.5 148.5t-40 207.5zM303 1069q0 -49 18.5 -81t48 -51t66.5 -31.5t76 -22.5v368q-98 -4 -153.5 -53t-55.5 -129zM623 184q104 4 165.5 61.5t61.5 149.5 q0 82 -55.5 131t-171.5 72v-414z" />
<glyph unicode="%" horiz-adv-x="2048" d="M160 1049q0 193 89 295t255 102t254 -99.5t88 -287.5q0 -201 -87 -305.5t-253 -104.5q-168 0 -257 102.5t-89 297.5zM369 1038q0 -129 29.5 -185t101.5 -56t103.5 61.5t31.5 200.5q0 37 -3 78t-15.5 76.5t-39 59t-75.5 23.5q-70 0 -101.5 -61t-31.5 -197zM522 -55 l807 1530h180l-804 -1530h-183zM1212 371q0 193 89 295t255 102t254 -99.5t88 -287.5q0 -201 -87 -305.5t-252 -104.5q-168 0 -257.5 102.5t-89.5 297.5zM1421 360q0 -129 30 -185t101 -56q72 0 104 61.5t32 200.5q0 37 -3.5 78t-15.5 76.5t-39 59t-76 23.5 q-70 0 -101.5 -61t-31.5 -197z" />
<glyph unicode="&#x26;" horiz-adv-x="1402" d="M70 399q0 78 26.5 144.5t71.5 121t104.5 96.5t126.5 70q-72 88 -104.5 159t-32.5 145t30 137t82 108t123.5 71t157.5 26q82 0 152 -27t120 -73t78.5 -109.5t28.5 -137.5q0 -117 -64.5 -210t-189.5 -158l189 -230q23 41 34 83t19 90h250q-10 -98 -45 -191.5t-94 -167.5 l297 -346h-355l-121 143q-78 -86 -185 -130t-222 -44q-96 0 -182 29t-152 84t-104.5 135t-38.5 182zM352 408q0 -41 16.5 -77t44 -62.5t65.5 -42t81 -15.5q129 0 242 127l-252 305q-102 -53 -149.5 -108.5t-47.5 -126.5zM520 1145q0 -29 11.5 -57.5t29 -56t38 -52.5 t38.5 -45q82 49 116.5 96t34.5 107q0 59 -36.5 97t-96.5 38q-59 0 -97 -37t-38 -90z" />
<glyph unicode="'" horiz-adv-x="569" d="M174 1421h221l-43 -600h-135z" />
<glyph unicode="(" horiz-adv-x="606" d="M109 543q0 117 16 241.5t50 246.5t84 236.5t118 213.5h241q-59 -117 -101 -227.5t-70.5 -223t-42 -231.5t-13.5 -250q0 -246 60.5 -470t171.5 -444h-246q-66 96 -115 207t-84 227.5t-52 236.5t-17 237z" />
<glyph unicode=")" horiz-adv-x="606" d="M-8 1481h241q133 -205 203 -437.5t70 -474.5q0 -109 -17.5 -234.5t-51.5 -251.5t-84 -242.5t-115 -205.5h-244q59 123 102 234t71 222.5t41 229t13 252.5q0 236 -57.5 469.5t-171.5 438.5z" />
<glyph unicode="*" horiz-adv-x="833" d="M45 1155l53 158l238 -90l-6 256h172l-8 -256l237 90l60 -158l-242 -80l149 -201l-135 -100l-149 211l-146 -211l-137 100l152 201z" />
<glyph unicode="+" horiz-adv-x="1228" d="M82 428v207h422v428h221v-428h422v-207h-422v-428h-221v428h-422z" />
<glyph unicode="," horiz-adv-x="569" d="M123 0v319h323v-260q0 -180 -78.5 -276t-244.5 -123v143q72 23 106.5 69t38.5 128h-145z" />
<glyph unicode="-" horiz-adv-x="833" d="M109 428v260h616v-260h-616z" />
<glyph unicode="." horiz-adv-x="569" d="M123 0v319h323v-319h-323z" />
<glyph unicode="/" horiz-adv-x="759" d="M-27 -35l559 1528h250l-557 -1528h-252z" />
<glyph unicode="0" horiz-adv-x="1138" d="M43 707q0 127 25.5 258t86 236.5t161.5 173t255 67.5q102 0 181 -31t137.5 -85t98.5 -126t63.5 -152.5t34 -168.5t10.5 -172q0 -170 -36 -306.5t-103.5 -230.5t-164 -144.5t-219.5 -50.5q-125 0 -223 50.5t-166.5 143.5t-104.5 229.5t-36 308.5zM330 692 q0 -246 59.5 -363.5t181.5 -117.5q238 0 238 496q0 258 -57.5 376.5t-182.5 118.5q-90 0 -138 -55t-70.5 -135t-26.5 -168t-4 -152z" />
<glyph unicode="1" horiz-adv-x="1138" d="M154 932v215h36q152 0 251.5 64.5t129.5 222.5h240v-1434h-309v932h-348z" />
<glyph unicode="2" horiz-adv-x="1138" d="M31 0q2 125 34.5 214t91 159.5t138.5 131t176 126.5q47 33 101.5 67.5t100.5 75.5t76.5 93.5t30.5 117.5q0 94 -56 150.5t-149 56.5q-115 0 -171 -76t-62 -235h-279v30q0 123 37 221.5t104.5 167t164 106.5t217.5 38q109 0 197.5 -32t153 -90t100.5 -138t36 -178 q0 -86 -22.5 -152t-62.5 -117t-94 -95t-118 -87q-47 -31 -99 -65.5t-102.5 -71.5t-95.5 -79t-76 -87h678v-252h-1050z" />
<glyph unicode="3" horiz-adv-x="1138" d="M29 473v21h280q2 -133 64.5 -204t179.5 -71q109 0 173.5 59.5t64.5 157.5q0 59 -21.5 100.5t-57.5 66t-83 35.5t-99 11h-36t-35 -2v205q16 -2 25.5 -2h23.5q250 0 250 180q0 82 -54.5 131t-144.5 49q-102 0 -157.5 -62.5t-59.5 -182.5h-276q8 223 137 351t358 128 q106 0 193.5 -29t151 -81t98 -123.5t34.5 -159.5q0 -104 -54 -181t-146 -102q121 -29 187.5 -116t66.5 -214q0 -102 -39 -187t-110 -146.5t-169 -96.5t-215 -35q-123 0 -220 35t-167 99.5t-106.5 157.5t-36.5 208z" />
<glyph unicode="4" horiz-adv-x="1138" d="M27 330v268l622 840h262v-867h193v-241h-193v-330h-270v330h-614zM260 571h381v533z" />
<glyph unicode="5" horiz-adv-x="1138" d="M23 424h286q10 -94 73.5 -152.5t162.5 -58.5q111 0 179.5 76t68.5 198q0 123 -68 194t-182 71q-72 0 -123 -28t-92 -91h-260l139 788h801v-247h-588l-55 -312q53 53 115.5 77t148.5 24q102 0 186 -34t144.5 -95.5t93 -147.5t32.5 -192q0 -113 -39.5 -208.5t-111.5 -164 t-171 -106.5t-218 -38q-109 0 -202 29t-162.5 85t-110.5 139t-47 194z" />
<glyph unicode="6" horiz-adv-x="1138" d="M49 686q0 176 38 316.5t110.5 238.5t176 150.5t234.5 52.5q195 0 317 -99.5t148 -283.5h-276q-41 162 -193 162q-121 0 -188.5 -104.5t-83.5 -321.5q119 162 319 161q98 0 180 -34.5t142.5 -98t93.5 -149.5t33 -191q0 -111 -38 -205t-105.5 -161.5t-162 -105.5 t-204.5 -38q-127 0 -227.5 48.5t-170 139.5t-106.5 223t-37 300zM358 475q0 -117 63.5 -190.5t164.5 -73.5q49 0 92 20.5t73.5 55.5t48 84t17.5 106q0 117 -65.5 190.5t-167.5 73.5q-49 0 -90 -20.5t-72 -55t-47.5 -84t-16.5 -106.5z" />
<glyph unicode="7" horiz-adv-x="1138" d="M76 1159v262h979v-239q-123 -133 -208 -267.5t-140.5 -276.5t-85 -300t-39.5 -338h-301q0 84 18 185.5t50 209t77 217t98.5 210t112.5 187.5t123 150h-684z" />
<glyph unicode="8" horiz-adv-x="1138" d="M31 412q0 135 70.5 227t197.5 123q-102 35 -156.5 110.5t-54.5 186.5q0 84 36 154.5t100.5 123t152.5 81t192 28.5t192.5 -28.5t153 -81t100.5 -123t36 -154.5q0 -111 -53.5 -186.5t-155.5 -110.5q127 -31 197.5 -123t70.5 -227q0 -98 -39 -179t-109.5 -137.5t-170 -88.5 t-222.5 -32t-222 32t-170 88.5t-108.5 137t-37.5 179.5zM322 430q0 -104 68.5 -168.5t178.5 -64.5q113 0 181.5 63.5t68.5 167.5t-69.5 166.5t-186.5 62.5q-106 0 -173.5 -63.5t-67.5 -163.5zM354 1040q0 -88 59.5 -140t157.5 -52q100 0 158.5 52t58.5 140t-58.5 137.5 t-160.5 49.5q-98 0 -156.5 -50.5t-58.5 -136.5z" />
<glyph unicode="9" horiz-adv-x="1138" d="M35 934q0 111 39 204t108.5 161.5t163.5 107.5t205 39q150 0 252 -61.5t164.5 -161t90 -224.5t27.5 -251q0 -129 -27.5 -266.5t-92 -250t-170 -184.5t-263.5 -72q-199 0 -324.5 103.5t-148.5 281.5h277q35 -164 196 -163q80 0 129.5 44t78 108.5t40 139t17.5 138.5 q-59 -84 -130 -125t-178 -41q-98 0 -182 34.5t-144.5 98t-94 150.5t-33.5 190zM319 944q0 -115 63.5 -188.5t164.5 -73.5q49 0 91 19.5t71.5 54.5t47 83t17.5 103q0 57 -17.5 105.5t-48 83t-72.5 55t-91 20.5t-90 -19.5t-71 -55t-47.5 -84t-17.5 -103.5z" />
<glyph unicode=":" horiz-adv-x="569" d="M123 0v319h323v-319h-323zM123 723v319h323v-319h-323z" />
<glyph unicode=";" horiz-adv-x="569" d="M121 723v319h323v-319h-323zM125 0v319h324v-260q0 -180 -79 -276t-245 -123v143q72 23 106.5 69t38.5 128h-145z" />
<glyph unicode="&#x3c;" horiz-adv-x="1228" d="M82 424v215l1065 410v-250l-741 -267l741 -266v-254z" />
<glyph unicode="=" horiz-adv-x="1228" d="M82 203v229h1065v-229h-1065zM82 631v229h1065v-229h-1065z" />
<glyph unicode="&#x3e;" horiz-adv-x="1228" d="M82 12v254l741 266l-741 267v250l1065 -410v-215z" />
<glyph unicode="?" horiz-adv-x="1138" d="M63 987q14 229 142.5 365.5t374.5 136.5q109 0 198.5 -29.5t153 -85t98.5 -133.5t35 -172q0 -127 -66.5 -213t-164.5 -154q-45 -31 -73 -55t-43.5 -53t-21.5 -65.5t-6 -90.5h-272q0 63 3 113.5t16.5 94.5t42 85t79.5 84q33 27 66.5 53.5t61.5 56t46.5 66.5t18.5 84 q0 74 -48.5 119t-128.5 45q-61 0 -101 -19.5t-64.5 -54.5t-34.5 -81t-13 -97h-299zM393 0v313h318v-313h-318z" />
<glyph unicode="@" horiz-adv-x="1638" d="M61 709q0 166 63.5 309t174.5 248.5t261.5 166t324.5 60.5q152 0 278.5 -45t219 -127t143.5 -194.5t51 -247.5q0 -106 -35 -203.5t-93 -172.5t-134 -119t-160 -44q-80 0 -127 40t-47 109v19.5t4 21.5q-43 -84 -113.5 -137t-169.5 -53q-61 0 -112 22.5t-88 64.5 t-57.5 99.5t-20.5 126.5q0 100 34 190.5t90 158t131 107.5t157 40t139 -32t92 -107l29 106h174l-133 -457q-20 -74 -21 -110q0 -82 84 -82q49 0 96 36t84 95t59.5 135t22.5 156q0 111 -42 202t-117.5 157.5t-181 102t-234.5 35.5q-154 0 -284 -51t-225 -143t-148.5 -217 t-53.5 -273q0 -139 50 -254.5t141.5 -199.5t216.5 -131t276 -47q154 0 287 46t274 150l60 -82q-160 -117 -307.5 -168t-319.5 -51q-170 0 -310.5 50.5t-250.5 152.5q-113 104 -172.5 243.5t-59.5 297.5zM629 643q0 -84 33.5 -130t95.5 -46q59 0 105 49t77 116.5t47.5 139.5 t16.5 117q0 57 -33 96t-92 39t-105.5 -42t-79 -101.5t-49 -125t-16.5 -112.5z" />
<glyph unicode="A" horiz-adv-x="1402" d="M-18 0l555 1460h329l555 -1460h-336l-114 326h-543l-119 -326h-327zM506 559h387l-193 543z" />
<glyph unicode="B" horiz-adv-x="1441" d="M139 0v1458h690q96 0 181.5 -21.5t148 -65.5t99 -113.5t36.5 -165.5q0 -106 -54 -183.5t-144 -117.5q57 -16 105 -45t84 -73t56.5 -103.5t20.5 -135.5q0 -106 -39 -187t-105.5 -136.5t-156.5 -83t-193 -27.5h-729zM451 254h321q51 0 100.5 7t87 27.5t60 59.5t22.5 105 t-24.5 105.5t-64.5 60t-92 26.5t-105 6h-305v-397zM451 868h290q43 0 87 6.5t78 23.5t55.5 51t21.5 89t-20.5 89t-54.5 52.5t-78 24.5t-89 6h-290v-342z" />
<glyph unicode="C" horiz-adv-x="1517" d="M86 731q0 160 49 298t141.5 241.5t225.5 163t301 59.5q131 0 242.5 -39t194.5 -108.5t133 -166t61 -208.5h-314q-25 121 -109.5 187.5t-213.5 66.5q-104 0 -179 -43t-121 -114t-67.5 -159t-21.5 -180q0 -113 26.5 -204t76.5 -155.5t122 -99t160 -34.5q145 0 229 83.5 t104 243.5h318q-12 -133 -59.5 -243.5t-129 -189.5t-198.5 -122t-266 -43q-160 0 -290 55.5t-222.5 155.5t-142.5 241.5t-50 313.5z" />
<glyph unicode="D" horiz-adv-x="1517" d="M143 0v1458h590q342 0 524.5 -186.5t182.5 -542.5q0 -354 -182.5 -541.5t-524.5 -187.5h-590zM461 266h233q221 0 322.5 121t101.5 342t-103.5 342t-320.5 121h-233v-926z" />
<glyph unicode="E" horiz-adv-x="1327" d="M141 0v1458h1094v-262h-776v-317h712v-252h-712v-359h790v-268h-1108z" />
<glyph unicode="F" horiz-adv-x="1214" d="M141 0v1458h1028v-268h-708v-338h616v-254h-616v-598h-320z" />
<glyph unicode="G" horiz-adv-x="1554" d="M82 723q0 168 52 309.5t147.5 242.5t227.5 157.5t290 56.5q125 0 232.5 -37t189.5 -103.5t134 -160.5t66 -209h-309q-23 117 -105.5 179.5t-211.5 62.5q-184 0 -288 -131.5t-104 -366.5q0 -240 104.5 -371t297.5 -131q76 0 138.5 23.5t108.5 67.5t71.5 104.5t29.5 134.5 h-326v237h613v-788h-203l-31 166q-86 -104 -191.5 -152.5t-246.5 -48.5q-152 0 -279 55.5t-217 155.5t-140 239.5t-50 307.5z" />
<glyph unicode="H" horiz-adv-x="1517" d="M141 0v1458h320v-549h596v549h319v-1458h-319v629h-596v-629h-320z" />
<glyph unicode="I" horiz-adv-x="604" d="M141 0v1458h322v-1458h-322z" />
<glyph unicode="J" horiz-adv-x="1138" d="M53 449v96h295v-45q0 -51 3 -100.5t19.5 -88.5t54.5 -63.5t105 -24.5q59 0 93 19.5t51.5 53.5t21.5 78t4 93v991h320v-1001q0 -242 -119 -367t-360 -125q-113 0 -203 29t-153.5 88t-97.5 150.5t-34 216.5z" />
<glyph unicode="K" horiz-adv-x="1478" d="M145 0v1458h316v-606l573 606h404l-572 -575l625 -883h-401l-443 655l-186 -184v-471h-316z" />
<glyph unicode="L" horiz-adv-x="1214" d="M141 0v1458h320v-1184h713v-274h-1033z" />
<glyph unicode="M" horiz-adv-x="1857" d="M141 0v1458h457l340 -1001l332 1001h446v-1458h-301v1036l-358 -1036h-248l-363 1026v-1026h-305z" />
<glyph unicode="N" horiz-adv-x="1517" d="M141 0v1458h326l600 -977v977h307v-1458h-319l-604 979v-979h-310z" />
<glyph unicode="O" horiz-adv-x="1593" d="M78 727q0 174 51 315.5t146.5 241.5t228.5 154.5t297 54.5q160 0 292 -55.5t225 -156.5t145.5 -241.5t52.5 -312.5q0 -170 -52.5 -310.5t-146.5 -240.5t-226.5 -155.5t-291.5 -55.5q-162 0 -295 55.5t-227.5 154.5t-146.5 239.5t-52 312.5zM401 733q0 -236 106.5 -369 t293.5 -135q90 0 162.5 35t123 100.5t78 158.5t27.5 210q0 231 -105.5 364.5t-289.5 133.5q-90 0 -164 -35t-125 -100.5t-79 -157.5t-28 -205z" />
<glyph unicode="P" horiz-adv-x="1366" d="M143 0v1458h629q119 0 217 -27.5t169 -86t110 -146.5t39 -209q0 -119 -40 -207t-110 -145t-164 -85t-205 -28h-327v-524h-318zM461 776h284q53 0 99.5 10.5t80 34t52 63.5t18.5 101q0 117 -70.5 164t-176.5 47h-287v-420z" />
<glyph unicode="Q" horiz-adv-x="1593" d="M78 725q0 168 53 309.5t148.5 242.5t228.5 157.5t293 56.5q156 0 287 -56.5t225 -156.5t146 -239.5t52 -305.5q0 -172 -51 -314.5t-145 -230.5l188 -172l-149 -161l-215 194q-68 -43 -158 -63.5t-195 -20.5q-158 0 -288.5 54.5t-224 154.5t-144.5 239.5t-51 311.5z M399 727q0 -115 28 -209t79 -159.5t123.5 -101.5t163.5 -36q41 0 72.5 6t66.5 23l-146 127l150 160l158 -144q98 117 98 338q0 115 -27.5 206t-79 155.5t-125 99.5t-165.5 35q-90 0 -164 -35t-125 -100.5t-79 -157.5t-28 -207z" />
<glyph unicode="R" horiz-adv-x="1478" d="M154 0v1458h725q100 0 189 -23.5t156.5 -73.5t106.5 -128t39 -189q0 -129 -60.5 -223t-170.5 -135q61 -12 100 -47t63.5 -82t36 -102.5t15.5 -108.5q2 -35 6 -86t10 -102.5t18.5 -94.5t34.5 -63h-331q-14 27 -21.5 66.5t-11.5 80.5t-7 81t-5 71q-8 76 -24.5 127t-50.5 84 t-86 47t-130 14h-285v-571h-317zM471 803h303q55 0 106.5 7t90.5 28.5t62.5 62.5t23.5 109q0 63 -22.5 101t-60.5 59.5t-86 28.5t-100 7h-317v-403z" />
<glyph unicode="S" horiz-adv-x="1329" d="M45 487h317q4 -147 93.5 -210.5t236.5 -63.5q127 0 199 51t72 144q0 43 -20.5 70.5t-67 50t-123 45t-189.5 55.5q-90 25 -173 52.5t-148.5 73.5t-104.5 116.5t-39 181.5q0 98 40 179t114 138t177 88t230 31q115 0 216.5 -26.5t177 -84t121 -144.5t47.5 -210h-303 q-18 217 -277 217q-111 0 -173 -44t-62 -122q0 -47 28.5 -75.5t84.5 -50t140 -42t193 -51.5q98 -29 177 -62.5t134.5 -82.5t85 -115t29.5 -158q0 -129 -52 -219t-136 -145.5t-193 -81t-219 -25.5q-299 0 -464 136.5t-169 383.5z" />
<glyph unicode="T" horiz-adv-x="1251" d="M27 1186v272h1198v-272h-439v-1186h-321v1186h-438z" />
<glyph unicode="U" horiz-adv-x="1517" d="M133 586v872h320v-872q0 -84 13 -149.5t49 -109.5t96.5 -67.5t154.5 -23.5q92 0 150.5 24.5t90 69.5t44 110.5t12.5 145.5v872h319v-876q0 -313 -149.5 -462t-470.5 -149q-326 0 -477.5 151.5t-151.5 463.5z" />
<glyph unicode="V" horiz-adv-x="1290" d="M-16 1458h333l328 -1024l332 1024h332l-486 -1458h-362z" />
<glyph unicode="W" horiz-adv-x="1933" d="M6 1458h322l233 -991l256 991h301l252 -1003l242 1003h315l-393 -1458h-320l-249 995l-246 -995h-326z" />
<glyph unicode="X" horiz-adv-x="1366" d="M-14 0l514 762l-475 696h372l291 -469l293 469h352l-469 -696l512 -762h-383l-319 506l-324 -506h-364z" />
<glyph unicode="Y" horiz-adv-x="1366" d="M-18 1458h364l340 -584l344 584h354l-542 -897v-561h-316v567z" />
<glyph unicode="Z" horiz-adv-x="1327" d="M41 0v260l784 926h-729v272h1153v-244l-790 -940h817v-274h-1235z" />
<glyph unicode="[" horiz-adv-x="681" d="M143 -352v1820h531v-223h-262v-1374h262v-223h-531z" />
<glyph unicode="\" horiz-adv-x="759" d="M-18 1493h249l560 -1528h-252z" />
<glyph unicode="]" horiz-adv-x="681" d="M8 -129h262v1374h-262v223h531v-1820h-531v223z" />
<glyph unicode="^" horiz-adv-x="1228" d="M137 549l361 872h233l361 -872h-244l-240 590l-227 -590h-244z" />
<glyph unicode="_" horiz-adv-x="1024" d="M0 -154h1024v-102h-1024v102z" />
<glyph unicode="`" horiz-adv-x="530" d="M-98 1479h325l193 -293h-207z" />
<glyph unicode="a" d="M59 289q0 104 43 165.5t110 96.5t148.5 49t159.5 25q70 8 119 17t80 22.5t45 34t14 53.5q0 141 -190 141q-100 0 -147.5 -36t-61.5 -126h-273q12 178 136.5 267t353.5 89q80 0 162 -12t148.5 -49t108.5 -104.5t42 -178.5v-456q0 -72 4 -145.5t33 -141.5h-295 q-10 29 -13.5 48.5t-7.5 53.5q-68 -68 -157 -100.5t-185 -32.5q-176 0 -276.5 85t-100.5 235zM358 301q0 -66 42 -103.5t118 -37.5q115 0 186.5 60.5t71.5 174.5v119q-51 -29 -100 -37t-105 -18q-37 -6 -74.5 -13.5t-68.5 -23.5t-50.5 -44t-19.5 -77z" />
<glyph unicode="b" horiz-adv-x="1251" d="M109 0v1458h288v-530q63 78 147.5 115.5t186.5 37.5q109 0 194 -42t142 -115.5t87 -173t30 -211.5q0 -127 -34 -231.5t-96.5 -179.5t-148.5 -116t-190 -41t-188.5 38t-143.5 124l2 -133h-276zM387 535q0 -154 67.5 -242t186.5 -88q115 0 182.5 90t67.5 242 q0 147 -67.5 234t-182.5 87q-117 0 -185.5 -87t-68.5 -236z" />
<glyph unicode="c" d="M74 520q0 129 39 233.5t109.5 178.5t171 114.5t222.5 40.5q213 0 345.5 -106.5t150.5 -292.5h-285q-16 88 -69 135t-140 47q-119 0 -185 -90t-66 -254q0 -160 64.5 -245.5t180.5 -85.5q190 0 226 213h280q-29 -207 -162 -321t-344 -114q-123 0 -222 39t-169.5 111 t-108.5 173t-38 224z" />
<glyph unicode="d" horiz-adv-x="1251" d="M68 532q0 125 32.5 227.5t93 174.5t146.5 111.5t190 39.5q94 0 182.5 -38.5t139.5 -120.5v532h289v-1458h-275v135q-104 -164 -319 -164q-111 0 -199 40t-150.5 113t-96 176t-33.5 232zM360 532q0 -154 67 -240.5t183 -86.5q121 0 186.5 84.5t65.5 240.5q0 154 -66.5 240 t-185.5 86t-184.5 -85t-65.5 -239z" />
<glyph unicode="e" d="M68 522q0 123 39.5 226.5t110.5 179.5t168 117.5t212 41.5q119 0 216 -41.5t165 -120.5t104.5 -190.5t36.5 -251.5v-28h-758q4 -137 68 -209t180 -72q80 0 131.5 37t83.5 117h279q-49 -174 -182.5 -266.5t-313.5 -92.5q-123 0 -222 40t-170 113t-109.5 174t-38.5 226z M362 639h463q-4 49 -20.5 92t-44 75t-67.5 51.5t-95 19.5q-98 0 -160.5 -63.5t-75.5 -174.5z" />
<glyph unicode="f" horiz-adv-x="681" d="M0 860v197h172v55q0 184 82 268t281 84q39 0 75.5 -2t75.5 -4v-213q-35 2 -54.5 3t-41.5 1q-78 0 -103.5 -21.5t-25.5 -86.5v-84h207v-197h-205v-860h-291v860h-172z" />
<glyph unicode="g" horiz-adv-x="1251" d="M72 551q0 121 32.5 219t94 169t146.5 108.5t190 37.5q111 0 183.5 -39.5t131.5 -130.5v142h274v-946q0 -264 -131 -384t-389 -120q-453 0 -495 330h288q16 -72 66.5 -104t146.5 -32q74 0 119 19.5t70.5 54.5t35 86t9.5 115l2 119q-119 -164 -324 -164q-102 0 -186 36.5 t-142.5 104.5t-90 164t-31.5 215zM358 553q0 -141 65.5 -223t180.5 -82q113 0 178.5 83t65.5 228q0 141 -64.5 221t-181.5 80t-180.5 -81t-63.5 -226z" />
<glyph unicode="h" horiz-adv-x="1214" d="M113 0v1458h286v-543q63 86 143.5 127t190.5 41q195 0 283 -102t88 -289v-692h-291v623q0 49 -7 90t-27.5 70.5t-57.5 46t-94 16.5q-72 0 -117 -26.5t-69.5 -69.5t-33 -98.5t-8.5 -112.5v-539h-286z" />
<glyph unicode="i" horiz-adv-x="528" d="M119 0v1057h291v-1057h-291zM119 1212v246h291v-246h-291z" />
<glyph unicode="j" horiz-adv-x="569" d="M-39 -145q18 -2 28.5 -2h24.5q45 0 71 9t38 28.5t14 48t2 67.5v1051h291v-1059q0 -100 -16.5 -173t-56.5 -119t-107.5 -67.5t-171.5 -21.5h-49.5t-67.5 4v234zM139 1208v250h291v-250h-291z" />
<glyph unicode="k" d="M137 0v1458h285v-780l373 379h342l-398 -391l445 -666h-353l-290 469l-119 -111v-358h-285z" />
<glyph unicode="l" horiz-adv-x="528" d="M119 0v1458h291v-1458h-291z" />
<glyph unicode="m" horiz-adv-x="1855" d="M121 0v1057h276v-146q61 86 142.5 130t193.5 44q104 0 181 -43t118 -131q127 174 346 174q180 0 270.5 -102t90.5 -272v-711h-295v631q0 43 -5 83t-22.5 69.5t-51.5 47t-89 17.5q-57 0 -96 -19.5t-62.5 -53.5t-34 -81t-10.5 -100v-594h-291v643q0 43 -6 80t-22.5 65.5 t-48 45t-82.5 16.5q-63 0 -104.5 -23.5t-65 -61.5t-32.5 -88t-9 -104v-573h-291z" />
<glyph unicode="n" horiz-adv-x="1214" d="M113 0v1057h276v-148q63 86 150.5 131t199.5 45q168 0 267.5 -96t99.5 -282v-707h-295v616q0 49 -6 91.5t-25.5 73t-55.5 48t-93 17.5q-66 0 -110 -21.5t-70.5 -59.5t-38 -89t-11.5 -109v-567h-288z" />
<glyph unicode="o" horiz-adv-x="1251" d="M80 528q0 125 39 228.5t111.5 177.5t174 113.5t226.5 39.5q123 0 222 -39.5t170 -113.5t109.5 -177.5t38.5 -228.5q0 -127 -38.5 -230t-109.5 -177t-172 -114t-224 -40t-224.5 40t-173 114t-110.5 177t-39 230zM371 528q0 -164 66.5 -253t189.5 -89q121 0 187.5 90.5 t66.5 253.5q0 160 -67.5 248t-190.5 88q-117 0 -184.5 -89t-67.5 -249z" />
<glyph unicode="p" horiz-adv-x="1251" d="M111 -375v1432h274v-131q59 82 142 120.5t186 38.5q106 0 193 -39.5t148.5 -113.5t95.5 -178.5t34 -231.5q0 -125 -33 -226t-93.5 -173t-144.5 -111t-188 -39q-100 0 -183 38t-143 120v-506h-288zM389 526q0 -154 66.5 -239.5t187.5 -85.5q117 0 183.5 85t66.5 236 q0 156 -67.5 243t-184.5 87q-119 0 -185.5 -86t-66.5 -240z" />
<glyph unicode="q" horiz-adv-x="1251" d="M68 522q0 129 33.5 232.5t95 177.5t148.5 113.5t196 39.5q104 0 186 -36.5t139 -122.5v131h277v-1432h-289v508q-59 -82 -141 -121t-185 -39q-104 0 -190 39t-145.5 111t-92 173t-32.5 226zM360 520q0 -152 66 -235.5t184 -83.5q119 0 185.5 86t66.5 243q0 154 -67.5 239 t-190.5 85q-115 0 -179.5 -89t-64.5 -245z" />
<glyph unicode="r" horiz-adv-x="796" d="M115 0v1057h276v-195q49 104 136 161.5t206 57.5q16 0 28.5 -1t35.5 -5v-268q-39 8 -63.5 10t-49.5 2q-76 0 -128 -25.5t-86 -70.5t-49 -106.5t-15 -133.5v-483h-291z" />
<glyph unicode="s" horiz-adv-x="1099" d="M59 344h277q8 -96 66.5 -136t158.5 -40q90 0 141.5 36t51.5 95q0 33 -15.5 54.5t-46 37t-75 26.5t-101.5 23q-72 16 -147.5 34t-140 50.5t-105.5 89t-41 150.5q0 156 120 239.5t343 83.5q90 0 172 -18t144.5 -58t100 -104.5t42.5 -156.5h-271q-12 84 -62 114.5t-139 30.5 q-78 0 -120.5 -27.5t-42.5 -76.5q0 -33 16 -53.5t49 -35t81 -24.5t112 -23q72 -14 144.5 -33.5t132 -55.5t97 -92t37.5 -146q0 -166 -128 -262.5t-355 -96.5q-98 0 -188.5 20.5t-158 65.5t-107.5 116t-42 173z" />
<glyph unicode="t" horiz-adv-x="720" d="M12 860v197h176v319h289v-319h215v-197h-215v-498q0 -39 2 -66.5t14.5 -46t38 -27.5t72.5 -9h42.5t45.5 4v-221q-59 -4 -93 -6t-83 -2q-94 0 -156.5 14t-100.5 51t-54.5 99.5t-16.5 158.5v549h-176z" />
<glyph unicode="u" horiz-adv-x="1214" d="M113 346v711h293v-604q0 -49 4 -93.5t22.5 -77t54 -51t97.5 -18.5q68 0 112.5 24.5t70.5 65.5t36 95.5t10 113.5v545h289v-1057h-277v150q-59 -88 -144 -134.5t-200 -46.5q-172 0 -270 93.5t-98 283.5z" />
<glyph unicode="v" horiz-adv-x="1064" d="M10 1057h307l226 -721l225 721h289l-359 -1057h-325z" />
<glyph unicode="w" horiz-adv-x="1667" d="M10 1057h309l197 -719l178 719h281l184 -715l197 715h297l-334 -1057h-299l-189 711l-182 -711h-301z" />
<glyph unicode="x" horiz-adv-x="1099" d="M-4 0l385 557l-350 500h331l189 -283l186 283h322l-348 -494l391 -563h-332l-223 342l-221 -342h-330z" />
<glyph unicode="y" horiz-adv-x="1062" d="M-18 1057h313l242 -719l233 719h301l-389 -1053q-33 -88 -61.5 -158.5t-71.5 -120t-106.5 -76t-163.5 -26.5h-49.5h-29t-39 1t-77.5 1v240h141q72 0 110 38t38 103q0 8 -2 19.5t-6 21.5z" />
<glyph unicode="z" horiz-adv-x="1062" d="M45 0v221l559 613h-516v223h893v-211l-557 -617h594v-229h-973z" />
<glyph unicode="{" horiz-adv-x="681" d="M-2 494v131q63 6 103 24.5t62.5 49t32 76.5t9.5 108v110q0 129 24.5 216t80 142.5t145.5 83t221 35.5v-131q-63 -6 -102 -25.5t-62 -53t-31 -84t-8 -119.5v-117q0 -86 -15.5 -151.5t-50 -112.5t-94 -76t-145.5 -41q92 -8 150.5 -40t93 -82t48 -116.5t13.5 -142.5v-119 q0 -63 6 -112t27.5 -85t61.5 -56.5t108 -26.5v-129q-131 6 -221 32.5t-145.5 82t-80 143.5t-24.5 215v74q0 74 -4 126t-24.5 86.5t-62.5 55t-116 29.5z" />
<glyph unicode="|" horiz-adv-x="456" d="M104 -438v2048h248v-2048h-248z" />
<glyph unicode="}" horiz-adv-x="681" d="M-2 -221q68 6 107.5 26.5t61 56.5t28 85t6.5 112v119q0 76 13 142.5t48 116.5t93.5 82t150.5 40q-86 12 -145.5 41t-94.5 76t-50 112.5t-15 151.5v117q0 70 -8.5 120t-31 83.5t-61.5 53t-102 25.5v131q131 -8 221 -35.5t145.5 -83t80 -142.5t24.5 -216v-110 q0 -61 8 -107.5t31.5 -77t63.5 -49t104 -24.5v-131q-74 -8 -116 -29t-62.5 -55.5t-24.5 -87t-4 -125.5v-74q0 -127 -24.5 -215t-80 -143.5t-145.5 -82t-221 -32.5v129z" />
<glyph unicode="~" horiz-adv-x="1228" d="M55 348q6 63 24.5 129t54.5 118t92.5 85t135.5 33q72 0 140.5 -23.5t136.5 -46.5q25 -8 58.5 -19.5t68.5 -22.5t68.5 -18.5t60.5 -7.5q61 0 87 43.5t36 94.5h160q-8 -70 -26.5 -135.5t-55.5 -115.5t-93.5 -81t-138.5 -31q-47 0 -102 13.5t-113.5 32t-114 39t-102.5 36.5 q-29 10 -50.5 15.5t-41.5 5.5q-29 0 -50.5 -13.5t-36.5 -35t-24.5 -46t-13.5 -49.5h-160z" />
<glyph unicode="&#xa3;" horiz-adv-x="1138" d="M37 635v168h131q-88 125 -88 258q0 92 37 169t104.5 132t161.5 85t209 30q242 0 375 -127t139 -369h-287q-4 254 -223 254q-88 0 -145.5 -53.5t-57.5 -134.5q0 -25 9.5 -59t22.5 -67.5t28.5 -65.5t29.5 -52h273v-168h-217q14 -47 18 -67.5t4 -45.5q0 -49 -14.5 -91 t-38 -77t-55 -65.5t-66.5 -61.5q47 23 89 33t95 10q33 0 65 -5t79 -15q29 -8 48 -12.5t33.5 -7.5t26 -4t23.5 -1q53 0 102 22.5t86 63.5l123 -211q-68 -68 -150.5 -97.5t-179.5 -29.5q-39 0 -69.5 3.5t-58 9.5t-55.5 15t-64 19q-55 16 -101.5 24.5t-83.5 8.5 q-55 0 -104 -17.5t-115 -64.5l-125 187q41 35 81 67.5t70.5 71.5t50 85t19.5 107q0 35 -7 68t-27 78h-201z" />
<glyph unicode="&#xa9;" horiz-adv-x="1638" d="M39 731q0 158 60.5 297t164 243.5t242.5 165t299 60.5t299 -60.5t243.5 -165t165 -243.5t60.5 -297q0 -160 -60.5 -299t-165 -242.5t-243.5 -164t-297 -60.5q-160 0 -299 60.5t-243.5 164t-165 242.5t-60.5 299zM172 731q0 -131 49 -246.5t135 -201.5t202 -135.5 t247 -49.5t246.5 49.5t201.5 135.5t136.5 201.5t50.5 246.5t-50.5 247t-136.5 202t-201.5 135t-246.5 49t-247 -49t-202 -135t-135 -202t-49 -247zM397 731q0 100 30 184t84 144.5t130 94.5t166 34q80 0 147.5 -24.5t117.5 -68.5t81 -104.5t37 -134.5h-189q-12 78 -60 120 t-122 42q-90 0 -141 -75t-51 -208q0 -135 53 -209.5t151 -74.5q80 0 118 40.5t55 114.5h188q-8 -74 -39 -133t-79 -102t-112.5 -66.5t-138.5 -23.5q-92 0 -170 33.5t-135 94t-89 143.5t-32 179z" />
<glyph unicode="&#xab;" horiz-adv-x="909" d="M86 410v268l324 252v-242l-185 -141l185 -146v-249zM489 406v272l320 252v-246l-180 -141l180 -142v-247z" />
<glyph unicode="&#xad;" horiz-adv-x="833" d="M109 428v260h616v-260h-616z" />
<glyph unicode="&#xae;" horiz-adv-x="819" d="M27 1112q0 80 29.5 148.5t81.5 121t121 82t149 29.5t149.5 -29.5t121.5 -82t82 -121t30 -148.5t-30 -149.5t-82 -122t-122 -82t-149 -29.5q-80 0 -149 29.5t-121 82t-81.5 122t-29.5 149.5zM92 1112q0 -66 24.5 -123t67.5 -100t100.5 -67.5t123.5 -24.5t123 24.5 t100 67.5t67.5 100.5t24.5 122.5q0 66 -24.5 123t-67.5 100t-100 67.5t-123 24.5t-123.5 -24.5t-100.5 -67.5t-67.5 -100t-24.5 -123zM248 901v424h151q33 0 66 -4t60.5 -17.5t45 -38t17.5 -65.5t-18.5 -63.5t-59.5 -36.5q41 -16 55.5 -44t16.5 -98q0 -23 2 -31.5t8 -25.5 h-98q-6 14 -7.5 24.5t-3.5 35.5q-2 61 -18 79.5t-76 18.5h-41v-158h-100zM348 1137h47q49 0 70.5 12t21.5 43q0 29 -21.5 42t-70.5 13h-47v-110z" />
<glyph unicode="&#xbb;" horiz-adv-x="909" d="M100 158v239l183 144l-183 141v250l320 -254v-270zM500 154v241l186 144l-186 147v248l323 -258v-270z" />
<glyph unicode="&#x401;" horiz-adv-x="1327" d="M141 0v1458h1094v-262h-776v-317h712v-252h-712v-359h790v-268h-1108zM336 1581v238h272v-238h-272zM764 1581v238h272v-238h-272z" />
<glyph unicode="&#x402;" horiz-adv-x="1593" d="M27 1186v272h1177v-272h-479v-438q59 82 140 120.5t184 38.5q106 0 198 -41t160 -115.5t106.5 -180t38.5 -232.5q0 -137 -41 -253t-111.5 -201t-164.5 -132t-201 -47q-43 0 -95 7t-85 18v250q8 -4 24.5 -7.5t33 -5.5t31.5 -3t24 -1q117 0 189.5 94.5t72.5 280.5 q0 156 -67.5 238.5t-184.5 82.5q-119 0 -185.5 -86t-66.5 -239v-334h-322v1186h-376z" />
<glyph unicode="&#x403;" d="M141 0v1458h1016v-272h-696v-1186h-320zM391 1552l182 295h324l-305 -295h-201z" />
<glyph unicode="&#x404;" horiz-adv-x="1517" d="M86 731q0 160 49 298t141.5 241.5t225.5 163t301 59.5q127 0 235.5 -37t190.5 -102.5t134 -155.5t67 -197h-318q-31 106 -112.5 165t-202.5 59q-84 0 -146.5 -28t-108.5 -74t-75 -107.5t-43 -130.5h524v-252h-534q23 -186 122 -291.5t257 -105.5q268 0 325 278h320 q-18 -123 -67.5 -224.5t-131.5 -174t-193.5 -111.5t-254.5 -39q-160 0 -290 55.5t-222.5 155.5t-142.5 241.5t-50 313.5z" />
<glyph unicode="&#x405;" horiz-adv-x="1329" d="M45 487h317q4 -147 93.5 -210.5t236.5 -63.5q127 0 199 51t72 144q0 43 -20.5 70.5t-67 50t-123 45t-189.5 55.5q-90 25 -173 52.5t-148.5 73.5t-104.5 116.5t-39 181.5q0 98 40 179t114 138t177 88t230 31q115 0 216.5 -26.5t177 -84t121 -144.5t47.5 -210h-303 q-18 217 -277 217q-111 0 -173 -44t-62 -122q0 -47 28.5 -75.5t84.5 -50t140 -42t193 -51.5q98 -29 177 -62.5t134.5 -82.5t85 -115t29.5 -158q0 -129 -52 -219t-136 -145.5t-193 -81t-219 -25.5q-299 0 -464 136.5t-169 383.5z" />
<glyph unicode="&#x406;" horiz-adv-x="604" d="M141 0v1458h322v-1458h-322z" />
<glyph unicode="&#x407;" horiz-adv-x="604" d="M-49 1581v238h272v-238h-272zM141 0v1458h322v-1458h-322zM379 1581v238h272v-238h-272z" />
<glyph unicode="&#x408;" horiz-adv-x="1138" d="M53 449v96h295v-45q0 -51 3 -100.5t19.5 -88.5t54.5 -63.5t105 -24.5q59 0 93 19.5t51.5 53.5t21.5 78t4 93v991h320v-1001q0 -242 -119 -367t-360 -125q-113 0 -203 29t-153.5 88t-97.5 150.5t-34 216.5z" />
<glyph unicode="&#x409;" horiz-adv-x="2158" d="M27 -4v258q18 -10 50 -17.5t62 -7.5q33 0 61.5 11.5t50 47.5t35 103.5t17.5 179.5l25 887h975v-549h288q111 0 205 -24.5t164 -76.5t109.5 -136t39.5 -203q0 -121 -38.5 -209t-109.5 -146.5t-169 -86t-217 -27.5h-592v1186h-350l-21 -619q-10 -311 -113.5 -453.5 t-291.5 -142.5q-43 0 -95.5 7.5t-84.5 17.5zM1303 272h247q117 0 182.5 44.5t65.5 148.5q0 49 -18.5 81t-52 50t-79.5 25.5t-100 7.5h-245v-357z" />
<glyph unicode="&#x40a;" horiz-adv-x="2158" d="M141 0v1458h320v-549h522v549h320v-549h288q111 0 205 -24.5t164 -76.5t109.5 -136t39.5 -203q0 -121 -38.5 -209t-109.5 -146.5t-169 -86t-217 -27.5h-592v629h-522v-629h-320zM1303 272h247q117 0 182.5 44.5t65.5 148.5q0 49 -18.5 81t-52 50t-79.5 25.5t-100 7.5 h-245v-357z" />
<glyph unicode="&#x40b;" horiz-adv-x="1593" d="M27 1186v272h1177v-272h-479v-309q27 6 63.5 13t76.5 13t80 10.5t73 4.5q123 0 215 -27t154.5 -87.5t93 -157.5t30.5 -238v-408h-319v412q0 133 -52.5 186t-174.5 53q-66 0 -135.5 -13t-104.5 -20v-618h-322v1186h-376z" />
<glyph unicode="&#x40c;" horiz-adv-x="1478" d="M145 0v1458h316v-606l573 606h404l-572 -575l625 -883h-401l-443 655l-186 -184v-471h-316zM514 1552l182 295h324l-305 -295h-201z" />
<glyph unicode="&#x40e;" horiz-adv-x="1366" d="M14 1458h355l329 -768l324 768h342l-492 -1073q-51 -111 -100 -189.5t-105.5 -128t-124 -72t-155.5 -22.5q-59 0 -107.5 11.5t-70.5 21.5v270q29 -12 68.5 -22t84.5 -10q74 0 111 37.5t37 87.5q0 47 -22.5 95t-45.5 93zM391 1851h115q14 -72 74.5 -103.5t144.5 -31.5 t144.5 32t74.5 103h115q0 -158 -92.5 -226.5t-241.5 -68.5q-150 0 -242 69t-92 226z" />
<glyph unicode="&#x40f;" horiz-adv-x="1517" d="M141 0v1458h320v-1186h596v1186h319v-1458h-463v-375h-309v375h-463z" />
<glyph unicode="&#x410;" horiz-adv-x="1402" d="M-18 0l555 1460h329l555 -1460h-336l-114 326h-543l-119 -326h-327zM506 559h387l-193 543z" />
<glyph unicode="&#x411;" horiz-adv-x="1441" d="M145 0v1458h1082v-264h-764v-260h381q111 0 205 -27.5t163.5 -85t109.5 -145.5t40 -207q0 -121 -39 -209t-109.5 -146.5t-169 -86t-217.5 -27.5h-682zM463 262h340q117 0 182.5 47t65.5 164q0 57 -18.5 97t-52.5 64.5t-80 36t-99 11.5h-338v-420z" />
<glyph unicode="&#x412;" horiz-adv-x="1441" d="M139 0v1458h690q96 0 181.5 -21.5t148 -65.5t99 -113.5t36.5 -165.5q0 -106 -54 -183.5t-144 -117.5q57 -16 105 -45t84 -73t56.5 -103.5t20.5 -135.5q0 -106 -39 -187t-105.5 -136.5t-156.5 -83t-193 -27.5h-729zM451 254h321q51 0 100.5 7t87 27.5t60 59.5t22.5 105 t-24.5 105.5t-64.5 60t-92 26.5t-105 6h-305v-397zM451 868h290q43 0 87 6.5t78 23.5t55.5 51t21.5 89t-20.5 89t-54.5 52.5t-78 24.5t-89 6h-290v-342z" />
<glyph unicode="&#x413;" d="M141 0v1458h1016v-272h-696v-1186h-320z" />
<glyph unicode="&#x414;" horiz-adv-x="1593" d="M16 272h111q129 172 181 406.5t52 558.5v221h1039v-1186h162v-647h-310v375h-925v-375h-310v647zM483 272h596v926h-401v-24q0 -150 -12.5 -277t-37 -235.5t-60.5 -205t-85 -184.5z" />
<glyph unicode="&#x415;" horiz-adv-x="1327" d="M141 0v1458h1094v-262h-776v-317h712v-252h-712v-359h790v-268h-1108z" />
<glyph unicode="&#x416;" horiz-adv-x="2158" d="M-18 0l583 862l-530 596h385l506 -596v596h307v-596l506 596h385l-531 -596l584 -862h-397l-389 635l-158 -178v-457h-307v457l-158 178l-391 -635h-395z" />
<glyph unicode="&#x417;" horiz-adv-x="1329" d="M43 487h317q2 -74 28 -126t68 -84.5t98 -48t122 -15.5q113 0 182.5 66.5t69.5 166.5q0 61 -22.5 101.5t-61.5 64t-88 31.5t-103 8h-110v217q18 -2 44.5 -2h41.5q133 0 198.5 51.5t65.5 147.5q0 86 -60.5 131t-158.5 45q-119 0 -189.5 -55.5t-81.5 -161.5h-303 q2 123 49.5 210t126 144.5t182 84t218.5 26.5q111 0 206 -28.5t163.5 -82t108.5 -127t40 -166.5q0 -111 -61.5 -190.5t-159.5 -101.5q59 -10 109.5 -39t87 -73t58 -103t21.5 -129q0 -106 -44 -194.5t-120.5 -152t-181 -99.5t-227.5 -36q-299 0 -464 136.5t-169 383.5z" />
<glyph unicode="&#x418;" horiz-adv-x="1517" d="M141 0v1458h320v-1009h6l549 1009h360v-1458h-319v1012h-6l-549 -1012h-361z" />
<glyph unicode="&#x419;" horiz-adv-x="1517" d="M141 0v1458h320v-1009h6l549 1009h360v-1458h-319v1012h-6l-549 -1012h-361zM426 1851h115q14 -72 74.5 -103.5t144.5 -31.5t144.5 32t74.5 103h115q0 -158 -92.5 -226.5t-241.5 -68.5q-150 0 -242 69t-92 226z" />
<glyph unicode="&#x41a;" horiz-adv-x="1478" d="M145 0v1458h316v-606l573 606h404l-572 -575l625 -883h-401l-443 655l-186 -184v-471h-316z" />
<glyph unicode="&#x41b;" horiz-adv-x="1478" d="M27 -4v258q18 -10 50 -17.5t62 -7.5q33 0 61.5 11.5t50 47.5t35 103.5t17.5 179.5l25 887h1015v-1458h-319v1186h-391l-21 -619q-10 -311 -113.5 -453.5t-291.5 -142.5q-43 0 -95.5 7.5t-84.5 17.5z" />
<glyph unicode="&#x41c;" horiz-adv-x="1857" d="M141 0v1458h457l340 -1001l332 1001h446v-1458h-301v1036l-358 -1036h-248l-363 1026v-1026h-305z" />
<glyph unicode="&#x41d;" horiz-adv-x="1517" d="M141 0v1458h320v-549h596v549h319v-1458h-319v629h-596v-629h-320z" />
<glyph unicode="&#x41e;" horiz-adv-x="1593" d="M78 727q0 174 51 315.5t146.5 241.5t228.5 154.5t297 54.5q160 0 292 -55.5t225 -156.5t145.5 -241.5t52.5 -312.5q0 -170 -52.5 -310.5t-146.5 -240.5t-226.5 -155.5t-291.5 -55.5q-162 0 -295 55.5t-227.5 154.5t-146.5 239.5t-52 312.5zM401 733q0 -236 106.5 -369 t293.5 -135q90 0 162.5 35t123 100.5t78 158.5t27.5 210q0 231 -105.5 364.5t-289.5 133.5q-90 0 -164 -35t-125 -100.5t-79 -157.5t-28 -205z" />
<glyph unicode="&#x41f;" horiz-adv-x="1517" d="M141 0v1458h1235v-1458h-319v1186h-596v-1186h-320z" />
<glyph unicode="&#x420;" horiz-adv-x="1366" d="M143 0v1458h629q119 0 217 -27.5t169 -86t110 -146.5t39 -209q0 -119 -40 -207t-110 -145t-164 -85t-205 -28h-327v-524h-318zM461 776h284q53 0 99.5 10.5t80 34t52 63.5t18.5 101q0 117 -70.5 164t-176.5 47h-287v-420z" />
<glyph unicode="&#x421;" horiz-adv-x="1517" d="M86 731q0 160 49 298t141.5 241.5t225.5 163t301 59.5q131 0 242.5 -39t194.5 -108.5t133 -166t61 -208.5h-314q-25 121 -109.5 187.5t-213.5 66.5q-104 0 -179 -43t-121 -114t-67.5 -159t-21.5 -180q0 -113 26.5 -204t76.5 -155.5t122 -99t160 -34.5q145 0 229 83.5 t104 243.5h318q-12 -133 -59.5 -243.5t-129 -189.5t-198.5 -122t-266 -43q-160 0 -290 55.5t-222.5 155.5t-142.5 241.5t-50 313.5z" />
<glyph unicode="&#x422;" horiz-adv-x="1251" d="M27 1186v272h1198v-272h-439v-1186h-321v1186h-438z" />
<glyph unicode="&#x423;" horiz-adv-x="1366" d="M14 1458h355l329 -768l324 768h342l-492 -1073q-51 -111 -100 -189.5t-105.5 -128t-124 -72t-155.5 -22.5q-59 0 -107.5 11.5t-70.5 21.5v270q29 -12 68.5 -22t84.5 -10q74 0 111 37.5t37 87.5q0 47 -22.5 95t-45.5 93z" />
<glyph unicode="&#x424;" horiz-adv-x="1736" d="M78 745q0 131 45 235.5t128 177.5t199.5 113t260.5 44v143h315v-143q143 -4 260 -44t200 -113t128 -177.5t45 -235.5q0 -137 -46 -243.5t-130 -181t-200 -114.5t-257 -46v-160h-315v160q-141 6 -257 46t-200 114.5t-130 181t-46 243.5zM387 745q0 -74 21.5 -135 t63.5 -107t101.5 -74t137.5 -30v684q-160 -6 -242 -94t-82 -244zM1026 399q76 2 137.5 30t102.5 74t63.5 107t22.5 135q0 156 -83 244t-243 94v-684z" />
<glyph unicode="&#x425;" horiz-adv-x="1366" d="M-14 0l514 762l-475 696h372l291 -469l293 469h352l-469 -696l512 -762h-383l-319 506l-324 -506h-364z" />
<glyph unicode="&#x426;" horiz-adv-x="1550" d="M137 0v1458h320v-1186h596v1186h319v-1186h162v-647h-309v375h-1088z" />
<glyph unicode="&#x427;" horiz-adv-x="1366" d="M80 1071v387h319v-391q0 -133 52.5 -186.5t175.5 -53.5q33 0 75.5 4.5t83.5 9.5t76 10t53 9v598h320v-1458h-320v602q-27 -6 -66.5 -13t-83.5 -13.5t-87 -10.5t-76 -4q-123 0 -220 26.5t-163.5 87t-102.5 158t-36 238.5z" />
<glyph unicode="&#x428;" horiz-adv-x="2201" d="M137 0v1458h320v-1186h485v1186h320v-1186h485v1186h319v-1458h-1929z" />
<glyph unicode="&#x429;" horiz-adv-x="2236" d="M137 0v1458h320v-1186h485v1186h320v-1186h485v1186h319v-1186h162v-647h-309v375h-1782z" />
<glyph unicode="&#x42a;" horiz-adv-x="1650" d="M27 1184v274h712v-524h344q111 0 205 -27.5t164 -85t110 -145.5t40 -207q0 -121 -39 -209t-110 -146.5t-169 -86t-217 -27.5h-645v1184h-395zM739 262h303q117 0 182.5 47t65.5 164q0 57 -18.5 97t-52 64.5t-79.5 36t-100 11.5h-301v-420z" />
<glyph unicode="&#x42b;" horiz-adv-x="1857" d="M141 0v1458h318v-524h266q111 0 205 -27.5t163.5 -85t109.5 -145.5t40 -207q0 -121 -39 -209t-109.5 -146.5t-169 -86t-216.5 -27.5h-568zM459 262h225q117 0 182.5 47t65.5 164q0 57 -18.5 97t-52.5 64.5t-80 36t-99 11.5h-223v-420zM1399 0v1458h319v-1458h-319z" />
<glyph unicode="&#x42c;" horiz-adv-x="1366" d="M137 0v1458h318v-524h344q111 0 205 -27.5t163.5 -85t109.5 -145.5t40 -207q0 -121 -39 -209t-109.5 -146.5t-169 -86t-217.5 -27.5h-645zM455 262h303q117 0 182.5 47t65.5 164q0 57 -18.5 97t-52.5 64.5t-80 36t-99 11.5h-301v-420z" />
<glyph unicode="&#x42d;" horiz-adv-x="1517" d="M78 514h319q57 -279 326 -278q158 0 257 105t122 292h-535v252h525q-14 70 -43 131t-75 107t-109.5 74t-145.5 28q-121 0 -203 -58.5t-113 -165.5h-317q14 106 66.5 196.5t134.5 156t190.5 102.5t235.5 37q168 0 301 -59.5t225 -163t141.5 -241.5t49.5 -298 q0 -172 -50.5 -313.5t-142.5 -241.5t-222 -155.5t-290 -55.5q-143 0 -255 39t-193.5 111.5t-131 174t-67.5 224.5z" />
<glyph unicode="&#x42e;" horiz-adv-x="2084" d="M141 0v1458h320v-559h235q23 137 78 246.5t139 186.5t195 119t242 42q147 0 268 -55.5t207 -156.5t134 -241.5t48 -312.5q0 -170 -48 -310.5t-134 -240.5t-208 -155.5t-269 -55.5q-139 0 -255 48t-202 136.5t-138.5 212t-64.5 277.5h-227v-639h-320zM1008 733 q0 -236 91 -369t251 -135q156 0 244.5 135.5t88.5 368.5q0 231 -89.5 364.5t-247.5 133.5q-78 0 -140.5 -35t-106.5 -100.5t-67.5 -157.5t-23.5 -205z" />
<glyph unicode="&#x42f;" horiz-adv-x="1478" d="M6 0l453 590q-72 18 -133.5 54t-106.5 88t-69.5 122t-24.5 158q0 117 41 200.5t109.5 139t159.5 81t192 25.5h714v-1458h-317v571h-190l-426 -571h-402zM438 1010q0 -68 23.5 -109t62.5 -62.5t90.5 -28.5t106.5 -7h303v403h-317q-51 0 -99.5 -7t-86.5 -28.5t-60.5 -59.5 t-22.5 -101z" />
<glyph unicode="&#x430;" d="M59 289q0 104 43 165.5t110 96.5t148.5 49t159.5 25q70 8 119 17t80 22.5t45 34t14 53.5q0 141 -190 141q-100 0 -147.5 -36t-61.5 -126h-273q12 178 136.5 267t353.5 89q80 0 162 -12t148.5 -49t108.5 -104.5t42 -178.5v-456q0 -72 4 -145.5t33 -141.5h-295 q-10 29 -13.5 48.5t-7.5 53.5q-68 -68 -157 -100.5t-185 -32.5q-176 0 -276.5 85t-100.5 235zM358 301q0 -66 42 -103.5t118 -37.5q115 0 186.5 60.5t71.5 174.5v119q-51 -29 -100 -37t-105 -18q-37 -6 -74.5 -13.5t-68.5 -23.5t-50.5 -44t-19.5 -77z" />
<glyph unicode="&#x431;" horiz-adv-x="1251" d="M104 618q0 117 12.5 243t55.5 237.5t128 197.5t230 125q45 12 96.5 18.5t95.5 12.5t78 17.5t44 33.5h276q-14 -100 -58 -159.5t-109.5 -93t-148.5 -48t-175 -22.5q-98 -10 -166 -48t-111 -95.5t-64.5 -129t-29.5 -149.5h6q18 53 52 106.5t85.5 96.5t121 69.5t159.5 26.5 q100 0 189.5 -39t155 -109.5t103 -170t37.5 -222.5q0 -125 -37.5 -225.5t-109.5 -172t-174.5 -110.5t-229.5 -39q-143 0 -240 58.5t-157.5 150.5t-87.5 208t-27 232zM395 516q0 -160 64.5 -244t177.5 -84q111 0 175.5 85t64.5 245q0 156 -64.5 240t-179.5 84 q-109 0 -173.5 -85t-64.5 -241z" />
<glyph unicode="&#x432;" d="M106 0v1057h609q70 0 131 -15.5t107 -47t73 -83t27 -120.5q0 -78 -39 -133.5t-105 -84.5q82 -23 137.5 -85t55.5 -173q0 -78 -27.5 -136t-77 -98t-115 -60.5t-139.5 -20.5h-637zM393 188h215q37 0 72 5.5t61.5 19.5t43 42t16.5 73t-17.5 73.5t-46 43t-65.5 19.5t-76 5 h-203v-281zM393 633h193q33 0 63.5 4t55 17.5t39 37t14.5 62.5t-14.5 62.5t-38 35.5t-55.5 16t-64 4h-193v-239z" />
<glyph unicode="&#x433;" horiz-adv-x="927" d="M115 0v1057h798v-223h-510v-834h-288z" />
<glyph unicode="&#x434;" horiz-adv-x="1286" d="M14 223h127q23 45 46.5 118t43 160t31.5 183t12 188v185h844v-834h137v-534h-272v311h-696v-311h-273v534zM426 223h403v619h-284v-27q0 -84 -11.5 -171t-30 -167t-39 -146.5t-38.5 -107.5z" />
<glyph unicode="&#x435;" d="M68 522q0 123 39.5 226.5t110.5 179.5t168 117.5t212 41.5q119 0 216 -41.5t165 -120.5t104.5 -190.5t36.5 -251.5v-28h-758q4 -137 68 -209t180 -72q80 0 131.5 37t83.5 117h279q-49 -174 -182.5 -266.5t-313.5 -92.5q-123 0 -222 40t-170 113t-109.5 174t-38.5 226z M362 639h463q-4 49 -20.5 92t-44 75t-67.5 51.5t-95 19.5q-98 0 -160.5 -63.5t-75.5 -174.5z" />
<glyph unicode="&#x436;" horiz-adv-x="1683" d="M-6 0l407 655l-360 402h332l332 -420v420h274v-420l332 420h331l-366 -408l414 -649h-342l-256 444l-113 -127v-317h-274v317l-113 127l-256 -444h-342z" />
<glyph unicode="&#x437;" horiz-adv-x="1099" d="M45 344h277q8 -86 66 -131t159 -45q98 0 143 41t45 100q0 66 -43 107t-139 41h-113v182h76q92 0 146.5 28.5t54.5 108.5q0 47 -40 83t-126 36q-88 0 -138.5 -30.5t-62.5 -114.5h-270q2 92 43 156.5t107.5 104.5t151.5 58t175 18q211 0 326.5 -68.5t115.5 -215.5 q0 -45 -17 -85t-44 -72t-61.5 -51.5t-67.5 -25.5v-4q37 -4 77 -18.5t72.5 -43t54 -74.5t21.5 -116q0 -86 -35.5 -150.5t-100 -107.5t-156 -64.5t-201.5 -21.5q-98 0 -188.5 20.5t-158 65.5t-107.5 116t-42 173z" />
<glyph unicode="&#x438;" horiz-adv-x="1214" d="M115 0v1057h278v-715l377 715h330v-1057h-279v715l-377 -715h-329z" />
<glyph unicode="&#x439;" horiz-adv-x="1214" d="M115 0v1057h278v-715l377 715h330v-1057h-279v715l-377 -715h-329zM272 1458h115q14 -72 74.5 -103.5t144.5 -31.5t144.5 31.5t74.5 103.5h115q0 -158 -92 -226.5t-242 -68.5t-242 68.5t-92 226.5z" />
<glyph unicode="&#x43a;" d="M119 0v1057h284v-418l388 418h342l-410 -410l467 -647h-352l-306 455l-129 -131v-324h-284z" />
<glyph unicode="&#x43b;" horiz-adv-x="1214" d="M16 -12v231q16 -4 38 -7t44 -3q63 0 95 52t36 167l17 629h848v-1057h-289v834h-279l-12 -373q-4 -82 -12 -169t-41 -160t-100.5 -119t-186.5 -46q-16 0 -37.5 1t-45 4t-43 7.5t-32.5 8.5z" />
<glyph unicode="&#x43c;" horiz-adv-x="1478" d="M115 0v1057h422l198 -768h8l199 768h422v-1057h-274v803h-7l-206 -803h-275l-207 803h-6v-803h-274z" />
<glyph unicode="&#x43d;" horiz-adv-x="1214" d="M115 0v1057h288v-383h408v383h289v-1057h-289v444h-408v-444h-288z" />
<glyph unicode="&#x43e;" horiz-adv-x="1251" d="M80 528q0 125 39 228.5t111.5 177.5t174 113.5t226.5 39.5q123 0 222 -39.5t170 -113.5t109.5 -177.5t38.5 -228.5q0 -127 -38.5 -230t-109.5 -177t-172 -114t-224 -40t-224.5 40t-173 114t-110.5 177t-39 230zM371 528q0 -164 66.5 -253t189.5 -89q121 0 187.5 90 t66.5 254q0 160 -68 248t-190 88q-117 0 -184.5 -89t-67.5 -249z" />
<glyph unicode="&#x43f;" horiz-adv-x="1214" d="M115 0v1057h985v-1057h-289v834h-408v-834h-288z" />
<glyph unicode="&#x440;" horiz-adv-x="1251" d="M111 -375v1432h274v-131q59 82 142 120.5t186 38.5q106 0 193 -39.5t148.5 -113.5t95.5 -178.5t34 -231.5q0 -125 -33 -226t-93.5 -173t-144.5 -111t-188 -39q-100 0 -183 38t-143 120v-506h-288zM389 526q0 -154 66.5 -239.5t187.5 -85.5q117 0 183.5 85t66.5 236 q0 156 -67.5 243t-184.5 87q-119 0 -185.5 -86t-66.5 -240z" />
<glyph unicode="&#x441;" d="M74 520q0 129 39 233.5t109.5 178.5t171 114.5t222.5 40.5q213 0 345.5 -106.5t150.5 -292.5h-285q-16 88 -69 135t-140 47q-119 0 -185 -90t-66 -254q0 -160 64.5 -245.5t180.5 -85.5q190 0 226 213h280q-29 -207 -162 -321t-344 -114q-123 0 -222 39t-169.5 111 t-108.5 173t-38 224z" />
<glyph unicode="&#x442;" horiz-adv-x="1024" d="M20 834v223h986v-223h-349v-834h-288v834h-349z" />
<glyph unicode="&#x443;" horiz-adv-x="1062" d="M-18 1057h313l242 -719l233 719h301l-389 -1053q-33 -88 -61.5 -158.5t-71.5 -120t-106.5 -76t-163.5 -26.5h-49.5h-29t-39 1t-77.5 1v240h141q72 0 110 38t38 103q0 8 -2 19.5t-6 21.5z" />
<glyph unicode="&#x444;" horiz-adv-x="1732" d="M74 545q0 125 28.5 225t82 171t129 108.5t169.5 37.5q92 0 151.5 -32.5t82.5 -75.5h6v479h287v-479h6q23 43 82 75.5t151 32.5q94 0 170 -37.5t129.5 -108.5t82 -171t28.5 -225q0 -111 -21.5 -214.5t-71.5 -183t-131 -128t-200 -48.5q-66 0 -127 30t-92 69h-6v-445h-287 v445h-6q-31 -39 -92.5 -69t-126.5 -30q-119 0 -200 48.5t-131 128t-71.5 183t-21.5 214.5zM360 539q0 -66 9.5 -127.5t33 -109.5t62.5 -77.5t100 -29.5q66 0 108 30.5t50 71.5v455q-20 63 -69.5 87.5t-96.5 24.5q-104 0 -150.5 -86t-46.5 -239zM1010 297q8 -41 50 -71.5 t107 -30.5q61 0 100.5 29.5t63 77.5t32.5 109.5t9 127.5q0 154 -46 239.5t-150 85.5q-47 0 -96.5 -24.5t-69.5 -87.5v-455z" />
<glyph unicode="&#x445;" horiz-adv-x="1099" d="M-4 0l385 557l-350 500h331l189 -283l186 283h322l-348 -494l391 -563h-332l-223 342l-221 -342h-330z" />
<glyph unicode="&#x446;" horiz-adv-x="1234" d="M109 0v1057h288v-834h391v834h289v-834h133v-534h-272v311h-829z" />
<glyph unicode="&#x447;" d="M82 735v322h289v-262q0 -115 32.5 -161t128.5 -46q27 0 62 3t68.5 7t64.5 10t47 10v439h289v-1057h-289v416q-23 -6 -58.5 -13.5t-81.5 -15.5t-97.5 -13t-100.5 -5q-176 0 -265 98t-89 268z" />
<glyph unicode="&#x448;" horiz-adv-x="1726" d="M115 0v1057h288v-834h316v834h289v-834h315v834h289v-1057h-1497z" />
<glyph unicode="&#x449;" horiz-adv-x="1751" d="M109 0v1057h288v-834h310v834h288v-834h310v834h288v-834h133v-534h-272v311h-1345z" />
<glyph unicode="&#x44a;" horiz-adv-x="1327" d="M16 834v223h602v-363h281q80 0 150.5 -21.5t123 -65.5t83 -108.5t30.5 -150.5q0 -88 -29.5 -153.5t-84 -108.5t-127 -64.5t-158.5 -21.5h-555v834h-316zM618 201h199q80 0 128 34.5t48 112.5t-51 114t-127 36h-197v-297z" />
<glyph unicode="&#x44b;" horiz-adv-x="1517" d="M96 0v1057h287v-363h229q80 0 151 -21.5t123 -65.5t82.5 -108.5t30.5 -150.5q0 -88 -29.5 -153.5t-84 -108.5t-127 -64.5t-158.5 -21.5h-504zM383 201h147q80 0 128.5 34.5t48.5 112.5t-51.5 114t-127.5 36h-145v-297zM1133 0v1057h288v-1057h-288z" />
<glyph unicode="&#x44c;" horiz-adv-x="1099" d="M104 0v1057h287v-363h281q80 0 150.5 -21.5t122.5 -65.5t83 -108.5t31 -150.5q0 -88 -30 -153.5t-84 -108.5t-127 -64.5t-159 -21.5h-555zM391 201h199q80 0 128 34.5t48 112.5t-51 114t-127 36h-197v-297z" />
<glyph unicode="&#x44d;" d="M66 365h282q47 -170 215 -170q104 0 166 67.5t76 192.5h-340v184h334q-20 111 -82 171t-160 60q-78 0 -131 -41t-72 -116h-288q27 174 157.5 274t335.5 100q123 0 223.5 -40.5t171 -114.5t109.5 -178.5t39 -233.5q0 -123 -38 -224t-108.5 -173t-170 -111t-222.5 -39 q-201 0 -331 102.5t-166 289.5z" />
<glyph unicode="&#x44e;" horiz-adv-x="1712" d="M115 0v1057h288v-402h209q33 199 165 315.5t345 116.5q119 0 213.5 -39.5t160 -113.5t101 -177.5t35.5 -228.5q0 -127 -35.5 -230t-101 -177t-162 -114t-215.5 -40q-225 0 -358 131t-154 353h-203v-451h-288zM893 528q0 -164 57.5 -253t167.5 -89q109 0 166 90t57 254 q0 160 -58 248t-169 88q-106 0 -163.5 -89t-57.5 -249z" />
<glyph unicode="&#x44f;" d="M-12 0l350 416q-55 8 -104.5 34.5t-86 68.5t-57 96.5t-20.5 119.5q0 70 25.5 129.5t72.5 102.5t110.5 66.5t141.5 23.5h639v-1057h-289v391h-123l-303 -391h-356zM365 725q0 -61 35.5 -93t138.5 -32h231v248h-231q-100 0 -137 -32t-37 -91z" />
<glyph unicode="&#x451;" d="M68 522q0 123 39.5 226.5t110.5 179.5t168 117.5t212 41.5q119 0 216 -41.5t165 -120.5t104.5 -190.5t36.5 -251.5v-28h-758q4 -137 68 -209t180 -72q80 0 131.5 37t83.5 117h279q-49 -174 -182.5 -266.5t-313.5 -92.5q-123 0 -222 40t-170 113t-109.5 174t-38.5 226z M238 1221v237h272v-237h-272zM362 639h463q-4 49 -20.5 92t-44 75t-67.5 51.5t-95 19.5q-98 0 -160.5 -63.5t-75.5 -174.5zM668 1221v237h272v-237h-272z" />
<glyph unicode="&#x452;" d="M2 891v196h111v371h286v-371h508v-196h-508v-262q63 86 143.5 127t190.5 41q195 0 283 -102.5t88 -288.5v-230q0 -254 -142.5 -401.5t-455.5 -159.5v233q74 8 131 28t96 58.5t59.5 101t20.5 159.5v141q0 49 -7 90t-27.5 70.5t-57.5 46t-94 16.5q-72 0 -117 -26.5 t-69.5 -69.5t-33 -98.5t-8.5 -112.5v-252h-286v891h-111z" />
<glyph unicode="&#x453;" horiz-adv-x="927" d="M115 0v1057h798v-223h-510v-834h-288zM295 1190l184 293h324l-305 -293h-203z" />
<glyph unicode="&#x454;" d="M74 520q0 129 39 233.5t109.5 178.5t171 114.5t222.5 40.5q205 0 336 -100t158 -274h-289q-18 76 -71.5 116.5t-131.5 40.5q-98 0 -159.5 -60t-81.5 -171h334v-184h-340q14 -125 75.5 -192.5t165.5 -67.5q168 0 215 170h283q-37 -186 -167 -289t-331 -103q-123 0 -222 39 t-169.5 111t-108.5 173t-38 224z" />
<glyph unicode="&#x455;" horiz-adv-x="1099" d="M59 344h277q8 -96 66.5 -136t158.5 -40q90 0 141.5 36t51.5 95q0 33 -15.5 54.5t-46 37t-75 26.5t-101.5 23q-72 16 -147.5 34t-140 50.5t-105.5 89t-41 150.5q0 156 120 239.5t343 83.5q90 0 172 -18t144.5 -58t100 -104.5t42.5 -156.5h-271q-12 84 -62 114.5t-139 30.5 q-78 0 -120.5 -27.5t-42.5 -76.5q0 -33 16 -53.5t49 -35t81 -24.5t112 -23q72 -14 144.5 -33.5t132 -55.5t97 -92t37.5 -146q0 -166 -128 -262.5t-355 -96.5q-98 0 -188.5 20.5t-158 65.5t-107.5 116t-42 173z" />
<glyph unicode="&#x456;" horiz-adv-x="528" d="M119 0v1057h291v-1057h-291zM119 1212v246h291v-246h-291z" />
<glyph unicode="&#x457;" horiz-adv-x="528" d="M-88 1221v237h272v-237h-272zM119 0v1057h291v-1057h-291zM340 1221v237h272v-237h-272z" />
<glyph unicode="&#x458;" horiz-adv-x="569" d="M-39 -145q18 -2 28.5 -2h24.5q45 0 71 9t38 28.5t14 48t2 67.5v1051h291v-1059q0 -100 -16.5 -173t-56.5 -119t-107.5 -67.5t-171.5 -21.5h-49.5t-67.5 4v234zM139 1208v250h291v-250h-291z" />
<glyph unicode="&#x459;" horiz-adv-x="1683" d="M10 -12v231q16 -4 38 -7t44 -3q63 0 95 52t36 167l17 629h809v-383h208q80 0 150 -20.5t123 -61.5t84 -104.5t31 -149.5q0 -88 -30 -151.5t-84 -105.5t-127 -61.5t-159 -19.5h-485v834h-240l-12 -373q-4 -82 -12.5 -169t-41 -160t-100 -119t-186.5 -46q-16 0 -37.5 1 t-45.5 4t-43 7.5t-32 8.5zM1049 207h125q82 0 130 26.5t48 104.5t-51.5 104.5t-126.5 26.5h-125v-262z" />
<glyph unicode="&#x45a;" horiz-adv-x="1683" d="M115 0v1057h288v-383h347v383h288v-383h219q80 0 150 -20.5t123 -61.5t84 -104.5t31 -149.5q0 -88 -30 -151.5t-84 -105.5t-127 -61.5t-159 -19.5h-495v469h-347v-469h-288zM1038 207h136q82 0 130 26.5t48 104.5t-51.5 104.5t-126.5 26.5h-136v-262z" />
<glyph unicode="&#x45b;" d="M4 891v196h109v371h286v-371h510v-196h-510v-262q63 86 143.5 127t190.5 41q195 0 283 -102.5t88 -288.5v-406h-291v336q0 49 -7 90t-27.5 70.5t-57.5 46t-94 16.5q-72 0 -117 -26.5t-69.5 -69.5t-33 -98.5t-8.5 -112.5v-252h-286v891h-109z" />
<glyph unicode="&#x45c;" d="M119 0v1057h284v-418l388 418h342l-404 -408l461 -649h-352l-306 449l-129 -132v-317h-284zM459 1190l184 293h324l-305 -293h-203z" />
<glyph unicode="&#x45e;" horiz-adv-x="1062" d="M-18 1057h313l242 -719l233 719h301l-389 -1053q-33 -88 -61.5 -158.5t-71.5 -120t-106.5 -76t-163.5 -26.5h-49.5h-29t-39 1t-77.5 1v240h141q72 0 110 38t38 103q0 8 -2 19.5t-6 21.5zM213 1458h115q14 -72 74.5 -103.5t144.5 -31.5t144.5 31.5t74.5 103.5h115 q0 -158 -92.5 -226.5t-241.5 -68.5q-150 0 -242 68.5t-92 226.5z" />
<glyph unicode="&#x45f;" horiz-adv-x="1214" d="M115 0v1057h288v-834h408v834h289v-1057h-355v-311h-274v311h-356z" />
<glyph unicode="&#x490;" d="M141 0v1458h709v326h309v-598h-698v-1186h-320z" />
<glyph unicode="&#x491;" horiz-adv-x="927" d="M115 0v1057h524v291h274v-514h-510v-834h-288z" />
<glyph unicode="&#x2000;" horiz-adv-x="925" />
<glyph unicode="&#x2001;" horiz-adv-x="1851" />
<glyph unicode="&#x2002;" horiz-adv-x="925" />
<glyph unicode="&#x2003;" horiz-adv-x="1851" />
<glyph unicode="&#x2004;" horiz-adv-x="617" />
<glyph unicode="&#x2005;" horiz-adv-x="462" />
<glyph unicode="&#x2006;" horiz-adv-x="308" />
<glyph unicode="&#x2007;" horiz-adv-x="308" />
<glyph unicode="&#x2008;" horiz-adv-x="231" />
<glyph unicode="&#x2009;" horiz-adv-x="370" />
<glyph unicode="&#x200a;" horiz-adv-x="102" />
<glyph unicode="&#x2010;" horiz-adv-x="833" d="M109 428v260h616v-260h-616z" />
<glyph unicode="&#x2011;" horiz-adv-x="833" d="M109 428v260h616v-260h-616z" />
<glyph unicode="&#x2012;" horiz-adv-x="833" d="M109 428v260h616v-260h-616z" />
<glyph unicode="&#x2013;" horiz-adv-x="1024" d="M0 428v258h1024v-258h-1024z" />
<glyph unicode="&#x2014;" horiz-adv-x="2048" d="M0 428v258h2048v-258h-2048z" />
<glyph unicode="&#x2018;" horiz-adv-x="569" d="M123 799v250q0 82 15.5 150.5t52 121.5t99 88t156.5 49v-143q-139 -39 -145 -197h145v-319h-323z" />
<glyph unicode="&#x2019;" horiz-adv-x="569" d="M123 799v143q139 39 145 197h-145v319h323v-250q0 -82 -15 -150.5t-52 -121.5t-99.5 -88t-156.5 -49z" />
<glyph unicode="&#x201a;" horiz-adv-x="569" d="M123 0v319h323v-249q0 -82 -15 -151t-52 -122t-99.5 -88t-156.5 -49v143q139 39 145 197h-145z" />
<glyph unicode="&#x201c;" horiz-adv-x="948" d="M109 809v256q0 74 17 139.5t52 117.5t90.5 88t132.5 48v-135q-78 -23 -105.5 -74t-31.5 -127h137v-313h-292zM543 809v256q0 74 17.5 139.5t52 117.5t90 88t133.5 48v-135q-78 -23 -106 -74t-32 -127h138v-313h-293z" />
<glyph unicode="&#x201d;" horiz-adv-x="948" d="M113 809v135q78 23 105.5 74t31.5 127h-137v313h293v-256q0 -74 -17.5 -139.5t-52.5 -117.5t-91.5 -88t-131.5 -48zM547 809v135q78 23 105.5 74t31.5 127h-137v313h293v-256q0 -74 -17.5 -139.5t-52.5 -117.5t-91 -88t-132 -48z" />
<glyph unicode="&#x201e;" horiz-adv-x="948" d="M111 2v313h292v-256q0 -74 -17 -139t-52 -117.5t-91.5 -88.5t-131.5 -48v135q78 23 105.5 74t31.5 127h-137zM545 2v313h293v-256q0 -74 -17.5 -139t-52.5 -117.5t-91 -88.5t-132 -48v135q78 23 105.5 74t31.5 127h-137z" />
<glyph unicode="&#x2022;" horiz-adv-x="1026" d="M150 729q0 76 28.5 142.5t77.5 115.5t115.5 78t142.5 29t142.5 -29t115.5 -78t78 -115.5t29 -142.5t-29 -142.5t-78 -115.5t-115.5 -77.5t-142.5 -28.5t-142.5 28.5t-115.5 77.5t-77.5 115.5t-28.5 142.5z" />
<glyph unicode="&#x2026;" horiz-adv-x="2048" d="M205 0v274h272v-274h-272zM887 0v274h272v-274h-272zM1569 0v274h272v-274h-272z" />
<glyph unicode="&#x202f;" horiz-adv-x="370" />
<glyph unicode="&#x2039;" horiz-adv-x="493" d="M76 408v270l319 250v-244l-182 -141l182 -144v-247z" />
<glyph unicode="&#x203a;" horiz-adv-x="493" d="M96 156v239l183 146l-183 143v248l322 -254v-275z" />
<glyph unicode="&#x205f;" horiz-adv-x="462" />
<glyph unicode="&#x2122;" horiz-adv-x="2048" d="M219 1319v139h615v-139h-220v-590h-172v590h-223zM930 729v729h246l178 -502l178 502h242v-729h-158v594l-207 -594h-115l-207 594v-594h-157z" />
<glyph unicode="&#xe000;" horiz-adv-x="1055" d="M0 0v1055h1055v-1055h-1055z" />
</font>
</defs>
</svg>
